<svg xmlns="http://www.w3.org/2000/svg" xmlns:xlink="http://www.w3.org/1999/xlink" width="512" height="512" viewBox="0 0 512 512">
  <defs>
    <clipPath id="clip-favicon">
      <rect width="512" height="512"/>
    </clipPath>
  </defs>
  <g id="favicon" clip-path="url(#clip-favicon)">
    <g id="구성_요소_1_1" data-name="구성 요소 1 – 1" transform="translate(54.102 27.033)">
      <g id="패스_7" data-name="패스 7" transform="translate(-91.758 184.633)" fill="#aaa" stroke-linecap="round" stroke-linejoin="round">
        <path d="M 121.8297424316406 153.0822601318359 L 119.520378112793 153.0822601318359 L 118.0231018066406 151.3240814208984 L 116.6865997314453 149.7547149658203 L 113.5989227294922 146.1290740966797 L 117.0699234008789 142.8685760498047 L 118.7405548095703 141.2992553710938 L 118.8320999145508 141.2133026123047 L 118.9277877807617 141.1320343017578 C 130.7810974121094 131.0682678222656 136.5431518554688 117.9636688232422 136.5431976318359 101.0694427490234 C 136.5431976318359 94.06558227539062 135.2790069580078 86.68531036376953 132.7857360839844 79.1336669921875 C 130.2752380371094 71.52989959716797 123.5758743286133 59.83439636230469 112.873649597168 44.37199020385742 C 107.291145324707 36.30648803710938 102.6630554199219 28.96307945251465 99.11796569824219 22.54576110839844 C 95.49119567871094 15.9805793762207 92.87078094482422 10.14967060089111 91.3294677734375 5.214943408966064 C 88.29633331298828 -4.495783805847168 86.75837707519531 -13.89396572113037 86.75837707519531 -22.71855735778809 C 86.75837707519531 -29.92446517944336 87.93510437011719 -37.88182830810547 90.25582885742188 -46.36969375610352 L 90.26128387451172 -46.3897819519043 L 90.2669677734375 -46.40978240966797 L 90.92996978759766 -48.75764846801758 L 90.96346282958984 -48.87641906738281 L 91.00283050537109 -48.99332809448242 C 94.08132934570312 -58.14300918579102 97.95864868164062 -66.81468963623047 102.5270080566406 -74.76746368408203 C 107.1066513061523 -82.73987579345703 112.5066909790039 -90.20923614501953 118.5771026611328 -96.96805572509766 C 124.4913787841797 -103.5530090332031 129.2357788085938 -108.5803298950195 132.6785125732422 -111.9104690551758 C 137.6110534667969 -116.6816482543945 140.0086975097656 -118.2131500244141 142.5455627441406 -118.2131500244141 L 144.2698364257812 -118.2131500244141 L 145.6275634765625 -117.1503295898438 L 147.63232421875 -115.5810089111328 L 152.127197265625 -112.0624618530273 L 148.0472869873047 -108.0701446533203 L 146.0425109863281 -106.1084213256836 L 145.90087890625 -105.9697875976562 L 145.7486877441406 -105.8428268432617 C 129.8705139160156 -92.59555816650391 122.1519622802734 -76.91133117675781 122.1519622802734 -57.89387512207031 C 122.1519622802734 -53.63196563720703 122.4792861938477 -50.90214920043945 123.0833282470703 -47.3556022644043 L 123.1076507568359 -47.2130126953125 L 123.123649597168 -47.06923675537109 C 124.3559646606445 -35.99860382080078 131.2353363037109 -21.85505676269531 143.5706481933594 -5.031465530395508 C 150.09423828125 3.865761756896973 155.4526519775391 11.8220796585083 159.4970092773438 18.61657905578613 C 163.7050628662109 25.68594360351562 166.5445556640625 31.5345344543457 168.1777801513672 36.49653625488281 C 169.7523345947266 41.28021621704102 170.9512329101562 46.06962585449219 171.7411956787109 50.73167037963867 C 171.9791259765625 52.13581848144531 172.1819763183594 53.54043960571289 172.3493957519531 54.94142150878906 C 174.841796875 50.93283843994141 178.4605102539062 45.92167282104492 183.11669921875 40.03176116943359 C 193.6829223632812 26.66594314575195 206.8511047363281 19.88894271850586 222.2555084228516 19.88894271850586 C 235.5323333740234 19.88894271850586 246.3761444091797 24.47407913208008 254.4856872558594 33.51694488525391 C 258.5911560058594 38.09494400024414 262.0237426757812 43.47126007080078 264.4122924804688 49.06467056274414 C 267.1241455078125 55.41512680053711 268.4991455078125 61.93330764770508 268.4992065429688 68.43817138671875 L 268.4992065429688 68.69462585449219 L 268.4729614257812 68.94976043701172 C 267.935546875 74.17453765869141 266.8076782226562 78.7998046875 265.1207885742188 82.69708251953125 C 263.416015625 86.63558197021484 261.0948181152344 89.94994354248047 258.2216796875 92.54812622070312 C 255.4607849121094 95.04480743408203 252.1536407470703 96.9146728515625 248.3921508789062 98.10589599609375 C 245.0003356933594 99.17999267578125 241.1512451171875 99.72462463378906 236.9518280029297 99.72462463378906 C 232.2311553955078 99.72462463378906 227.9143676757812 98.30771636962891 224.1215057373047 95.5133056640625 C 220.5774230957031 92.90212249755859 217.4844207763672 89.04757690429688 214.9285125732422 84.05667114257812 L 214.7012786865234 83.61299133300781 L 214.5661468505859 83.13312530517578 L 213.9638214111328 80.99465179443359 C 212.6975250244141 77.63900756835938 212.0556945800781 74.47177886962891 212.0556945800781 71.57685089111328 C 212.0556945800781 66.97903442382812 212.5495147705078 62.78576278686523 213.5233764648438 59.11357879638672 C 214.5480499267578 55.24980545043945 216.1324615478516 51.84526062011719 218.2325592041016 48.99448776245117 C 220.4178771972656 46.02807998657227 223.023193359375 43.74958038330078 225.9761047363281 42.22235107421875 C 228.7471008300781 40.78923034667969 231.8299713134766 40.01257705688477 235.1499938964844 39.90978622436523 C 234.6215667724609 39.22236251831055 233.8350524902344 38.38426971435547 232.6958312988281 37.41608047485352 C 230.1885070800781 35.28507995605469 226.3878326416016 34.20462417602539 221.3993225097656 34.20462417602539 C 207.1261444091797 34.20462417602539 193.4053802490234 45.39044189453125 180.6181488037109 67.45135498046875 L 180.5371856689453 67.59103393554688 L 180.4473724365234 67.72517395019531 L 178.1085052490234 71.21939849853516 L 174.4321441650391 76.71185302734375 L 172.4803314208984 74.42002105712891 C 172.2581176757812 76.75315093994141 171.9556427001953 79.05760955810547 171.5738220214844 81.32212829589844 C 170.6652374267578 86.71089935302734 169.2825622558594 92.02062225341797 167.4640960693359 97.10380554199219 C 165.6461944580078 102.1855316162109 163.3432006835938 107.1796264648438 160.6190185546875 111.9474411010742 C 157.9040069580078 116.6991729736328 154.6960601806641 121.3566284179688 151.0842437744141 125.7904434204102 C 144.1006927490234 134.3633117675781 138.3655090332031 140.9105834960938 134.0379638671875 145.2503967285156 C 131.7205505371094 147.5743560791016 129.7837829589844 149.2988128662109 128.1169281005859 150.5223083496094 C 125.7050552368164 152.2927551269531 123.7660140991211 153.0822601318359 121.8297424316406 153.0822601318359 Z M 193.8808746337891 13.80317115783691 C 183.5372772216797 13.80317115783691 175.0677795410156 10.85439777374268 168.7076873779297 5.038761615753174 C 165.4992828369141 2.104943513870239 163.0442810058594 -1.21605658531189 161.4109649658203 -4.831965446472168 C 159.7644653320312 -8.477010726928711 158.9296417236328 -12.46955680847168 158.9296417236328 -16.69864654541016 C 158.9296417236328 -22.54069328308105 160.423095703125 -27.13960266113281 163.3686065673828 -30.36764717102051 C 164.9561462402344 -32.10750961303711 166.93896484375 -33.41996383666992 169.261962890625 -34.2685546875 C 171.3722381591797 -35.03951263427734 173.7937774658203 -35.43037414550781 176.4593353271484 -35.43037414550781 C 179.0042877197266 -35.43037414550781 181.3777008056641 -34.91664886474609 183.5136413574219 -33.90346527099609 C 185.6551513671875 -32.88764572143555 187.551513671875 -31.37314796447754 189.1501007080078 -29.40210151672363 C 192.1392822265625 -25.71632957458496 193.6549224853516 -21.37628364562988 193.6549682617188 -16.50251197814941 C 193.6549682617188 -12.61242008209229 192.5941467285156 -9.016238212585449 190.5019683837891 -5.813783645629883 C 189.5584716796875 -4.369612216949463 188.4006958007812 -3.005900859832764 187.0373840332031 -1.730674982070923 C 188.5086212158203 -1.176304340362549 190.0015563964844 -0.9048747420310974 191.5628814697266 -0.9048747420310974 C 197.7486877441406 -0.9048747420310974 203.0950622558594 -3.24819278717041 207.9074249267578 -8.068783760070801 C 212.7222442626953 -12.89169311523438 215.0627899169922 -18.92292022705078 215.0627899169922 -26.50701141357422 C 215.0627899169922 -32.91072082519531 213.5798645019531 -39.06210708618164 210.6551666259766 -44.79350280761719 L 208.7595062255859 -47.72328567504883 L 208.6737365722656 -47.85583114624023 L 208.5965576171875 -47.99351119995117 C 205.9258728027344 -52.75501251220703 199.3520965576172 -60.07405471801758 189.0578308105469 -69.74737548828125 C 183.555419921875 -74.91778564453125 178.9554595947266 -79.79273986816406 175.3856506347656 -84.23674011230469 C 171.6795043945312 -88.85050964355469 168.9415130615234 -93.18141937255859 167.2477416992188 -97.10914611816406 C 163.9453277587891 -104.7671051025391 162.2708740234375 -112.6933288574219 162.2708740234375 -120.6675567626953 C 162.2708740234375 -128.5091400146484 163.7540130615234 -135.9380493164062 166.6790618896484 -142.7480163574219 C 169.5932312011719 -149.5325164794922 174.0010070800781 -155.844970703125 179.7800598144531 -161.510009765625 C 185.3730163574219 -166.9925537109375 190.06787109375 -171.0208740234375 194.1330108642578 -173.8251495361328 C 198.8876953125 -177.1051025390625 202.6678771972656 -178.6327819824219 206.0294647216797 -178.6328277587891 L 207.1452331542969 -178.6328277587891 L 208.1551513671875 -178.1584625244141 L 211.4964141845703 -176.5890960693359 L 218.850830078125 -173.1348266601562 L 212.4528350830078 -168.1263275146484 L 209.4456939697266 -165.7722778320312 L 209.1412811279297 -165.5339660644531 L 208.8038330078125 -165.3452911376953 C 200.9761047363281 -160.9684600830078 197.330322265625 -155.12451171875 197.3303680419922 -146.9540557861328 C 197.330322265625 -141.1620635986328 198.5856475830078 -135.4541931152344 201.0614166259766 -129.9889221191406 C 202.74169921875 -126.2795562744141 207.5102386474609 -119.6394195556641 220.6855163574219 -109.0704650878906 C 232.4751892089844 -99.61293792724609 240.0184478759766 -91.79338836669922 243.7384948730469 -85.17249298095703 C 244.5899200439453 -83.82379150390625 245.3326568603516 -82.40303802490234 246.0050659179688 -80.83695220947266 C 249.4022369384766 -73.67079162597656 251.1246032714844 -65.16040802001953 251.1246490478516 -55.53987503051758 C 251.1246490478516 -50.56337356567383 250.7176971435547 -45.73351287841797 249.9150543212891 -41.18450927734375 C 249.1054229736328 -36.59578323364258 247.8709259033203 -32.16596603393555 246.2459716796875 -28.01801109313965 C 244.6139221191406 -23.85210227966309 242.5444183349609 -19.85919380187988 240.0950164794922 -16.15014839172363 C 237.6511535644531 -12.4496021270752 234.7643280029297 -8.933647155761719 231.5146484375 -5.700011253356934 C 225.1463775634766 0.6368525624275208 218.8267364501953 5.485352516174316 212.7312316894531 8.710716247558594 C 206.3452453613281 12.08980751037598 200.0030975341797 13.80317115783691 193.8808746337891 13.80317115783691 Z" stroke="none"/>
        <path d="M 206.029541015625 -173.6328430175781 C 201.5361785888672 -173.6327972412109 193.9530792236328 -168.4016418457031 183.2802276611328 -157.9393920898438 C 172.6073303222656 -147.4770965576172 167.2708892822266 -135.0531463623047 167.2708892822266 -120.6675491333008 C 167.2708892822266 -113.3439483642578 168.7936401367188 -106.1511001586914 171.8390350341797 -99.08909606933594 C 174.8843841552734 -92.02700042724609 181.7653350830078 -83.46104431152344 192.4817352294922 -73.39109802246094 C 203.1981353759766 -63.32114791870117 210.0233306884766 -55.67064666748047 212.9574279785156 -50.43949890136719 L 214.9882354736328 -47.30079650878906 C 218.3712768554688 -40.76189804077148 220.0627899169922 -33.83059692382812 220.0627899169922 -26.50699996948242 C 220.0627899169922 -17.61404800415039 217.1905364990234 -10.29049873352051 211.4459838867188 -4.536249160766602 C 205.7014312744141 1.218000411987305 199.07373046875 4.095149993896484 191.5628814697266 4.095149993896484 C 188.6914825439453 4.095149993896484 185.9296875 3.417751312255859 183.277587890625 2.062950134277344 C 180.6254272460938 0.7082004547119141 179.2993774414062 -0.7068996429443359 179.2993774414062 -2.182249069213867 C 185.5364379882812 -5.897148132324219 188.6549835205078 -10.6705493927002 188.6549835205078 -16.50244903564453 C 188.6549377441406 -20.21735000610352 187.5255279541016 -23.46744918823242 185.2667388916016 -26.25259971618652 C 183.0078887939453 -29.03779983520508 180.0721282958984 -30.43039894104004 176.4593353271484 -30.43039894104004 C 168.1062316894531 -30.43039894104004 163.9296417236328 -25.8531494140625 163.9296417236328 -16.69865036010742 C 163.9296417236328 -9.636599540710449 166.6469879150391 -3.620800018310547 172.081787109375 1.348800659179688 C 177.5165405273438 6.318351745605469 184.7828826904297 8.803150177001953 193.8808898925781 8.803150177001953 C 204.5276794433594 8.803150177001953 215.8966827392578 2.787351608276367 227.9878845214844 -9.24424934387207 C 240.0790863037109 -21.27584838867188 246.1246948242188 -36.70774841308594 246.1246948242188 -55.53984832763672 C 246.1245727539062 -64.43280029296875 244.5653839111328 -72.2406005859375 241.4468841552734 -78.77954864501953 C 240.7786254882812 -80.34884643554688 240.1103820800781 -81.56475067138672 239.442138671875 -82.61100006103516 C 236.1008911132812 -88.62680053710938 228.8057861328125 -96.14654541015625 217.5568389892578 -105.170295715332 C 206.3079376220703 -114.1940002441406 199.2912902832031 -121.7791519165039 196.5069274902344 -127.9257507324219 C 193.7224884033203 -134.0723571777344 192.3303375244141 -140.4151000976562 192.3303375244141 -146.9540100097656 C 192.3303375244141 -156.8931427001953 197.0080413818359 -164.4783020019531 206.3636779785156 -169.7094421386719 L 209.3707885742188 -172.0634460449219 L 206.029541015625 -173.6328430175781 M 142.5455780029297 -113.2131500244141 C 140.7740325927734 -113.2131500244141 134.0244903564453 -106.6844482421875 122.2969818115234 -93.62705230712891 C 110.5695343017578 -80.56959533691406 101.7177886962891 -65.16024780273438 95.74179077148438 -47.39889907836914 L 95.07879638671875 -45.05099868774414 C 92.86517333984375 -36.95499801635742 91.75839233398438 -29.51084899902344 91.75839233398438 -22.71854972839355 C 91.75839233398438 -14.36094951629639 93.206298828125 -5.546699523925781 96.10202026367188 3.724250793457031 C 98.99777221679688 12.9952507019043 105.958740234375 25.59595108032227 116.9849395751953 41.52639770507812 C 128.0110778808594 57.45684814453125 134.8606414794922 69.47005462646484 137.5336303710938 77.56610107421875 C 140.2066802978516 85.66210174560547 141.5431823730469 93.49655151367188 141.5431823730469 101.069450378418 C 141.5431365966797 119.3498077392578 135.0833892822266 133.9745483398438 122.1638793945312 144.9435577392578 L 120.4932403564453 146.5128936767578 L 121.8297271728516 148.0822448730469 C 124.9273376464844 148.0822448730469 133.3866271972656 139.5989990234375 147.2076416015625 122.6325531005859 C 161.0286407470703 105.6661071777344 167.9391326904297 86.34870147705078 167.9391326904297 64.6802978515625 C 167.9391326904297 56.06940460205078 166.4355773925781 47.19585418701172 163.4284362792969 38.05974960327148 C 160.4212799072266 28.92365264892578 152.4579315185547 15.54540252685547 139.5383911132812 -2.074949264526367 C 126.6188812255859 -19.69529914855957 119.4908294677734 -34.50904846191406 118.1543273925781 -46.51615142822266 C 117.486083984375 -50.43949890136719 117.1519775390625 -53.44734954833984 117.1519775390625 -57.89384841918945 C 117.1519775390625 -78.29530334472656 125.6165313720703 -95.55805206298828 142.5455780029297 -109.6821517944336 L 144.5502777099609 -111.6438522338867 L 142.5455780029297 -113.2131500244141 M 222.2554779052734 24.88890075683594 C 208.3927917480469 24.88895034790039 196.6539916992188 30.97014999389648 187.0391387939453 43.13249969482422 C 177.4243316650391 55.29495239257812 172.6168823242188 63.20700073242188 172.6168823242188 66.86879730224609 L 173.9533843994141 68.43814849853516 L 176.2922821044922 64.94390106201172 C 190.102783203125 41.11769866943359 205.1385345458984 29.2046012878418 221.3992767333984 29.2046012878418 C 227.6363372802734 29.2046012878418 232.4811859130859 30.67180252075195 235.9337768554688 33.60610198974609 C 239.3864440917969 36.54045104980469 241.11279296875 39.28275299072266 241.11279296875 41.83290100097656 C 241.11279296875 43.87630462646484 239.3794860839844 44.89804840087891 235.9128875732422 44.89800262451172 C 230.2779846191406 44.89804840087891 225.7263793945312 47.25205230712891 222.2581329345703 51.96005249023438 C 218.7897796630859 56.66809844970703 217.0556793212891 63.20700073242188 217.0556793212891 71.57685089111328 C 217.0556793212891 73.93084716796875 217.6090850830078 76.54644775390625 218.7158355712891 79.42355346679688 L 219.3788909912109 81.77754974365234 C 223.7991333007812 90.40895080566406 229.6567840576172 94.72460174560547 236.9518432617188 94.72460174560547 C 251.3227233886719 94.72460174560547 261.5083312988281 87.79340362548828 263.4991760253906 68.43814849853516 C 263.4991455078125 56.14495086669922 257.9173278808594 44.83264923095703 250.7632751464844 36.85515213012695 C 243.609130859375 28.87770080566406 234.1065826416016 24.88895034790039 222.2554779052734 24.88890075683594 M 206.0294342041016 -183.6328430175781 C 207.4990844726562 -183.6328430175781 208.9507293701172 -183.3089447021484 210.2809295654297 -182.6840972900391 L 213.6221771240234 -181.1147003173828 C 216.765380859375 -179.6383514404297 218.9175872802734 -176.6370544433594 219.3075408935547 -173.1863555908203 C 219.6974792480469 -169.7356414794922 218.2693328857422 -166.3297424316406 215.5348815917969 -164.1891937255859 L 212.5277862548828 -161.835205078125 C 212.1224822998047 -161.5178985595703 211.6932830810547 -161.2324066162109 211.2440338134766 -160.981201171875 C 205.0794372558594 -157.5343017578125 202.3303375244141 -153.2081604003906 202.3303375244141 -146.9540100097656 C 202.3303375244141 -141.8069458007812 203.405029296875 -136.9324951171875 205.6158905029297 -132.0521545410156 C 206.8072814941406 -129.4220886230469 210.7556915283203 -123.4459991455078 223.8141784667969 -112.9706497192383 C 236.1987915039062 -103.0358963012695 244.1703338623047 -94.69339752197266 248.1842346191406 -87.46644592285156 C 248.7939758300781 -86.54679870605469 249.7232360839844 -84.8677978515625 250.6474304199219 -82.69740295410156 C 254.2230377197266 -75.22090148925781 256.1245727539062 -65.95369720458984 256.1246948242188 -55.53994750976562 C 256.1246948242188 -34.03759765625 249.0312805175781 -16.07659912109375 235.0414733886719 -2.15574836730957 C 221.0652770996094 11.75155258178711 207.2168273925781 18.80315017700195 193.8808898925781 18.80315017700195 C 182.2490386962891 18.80315017700195 172.6443328857422 15.41360092163086 165.3336334228516 8.728649139404297 C 157.8730773925781 1.906700134277344 153.9296417236328 -6.885898590087891 153.9296417236328 -16.69865036010742 C 153.9296417236328 -31.33694839477539 162.5625305175781 -40.43039703369141 176.4593353271484 -40.43039703369141 C 183.1219787597656 -40.43039703369141 188.8532409667969 -37.70594787597656 193.0334777832031 -32.55159759521484 C 196.7635803222656 -27.95234870910645 198.6548767089844 -22.55270004272461 198.6549835205078 -16.50259780883789 C 198.6549835205078 -13.60622310638428 198.1769714355469 -10.18062973022461 196.6393890380859 -6.654964447021484 C 199.3920288085938 -7.52008056640625 201.918212890625 -9.146493911743164 204.3689270019531 -11.60134887695312 C 208.2535400390625 -15.49249935150146 210.0627899169922 -20.22884941101074 210.0627899169922 -26.50699996948242 C 210.0627899169922 -32.26149749755859 208.7686767578125 -37.56015014648438 206.1065368652344 -42.70565032958984 L 204.5615844726562 -45.00719833374023 C 202.8730773925781 -47.97689819335938 198.64453125 -53.87784957885742 185.6338806152344 -66.10365295410156 C 173.7992858886719 -77.22434997558594 166.2832794189453 -86.71875 162.6564331054688 -95.12934875488281 C 159.0828399658203 -103.4160995483398 157.2708892822266 -112.0084457397461 157.2708892822266 -120.6675491333008 C 157.2708892822266 -137.7732543945312 163.6664886474609 -152.7159423828125 176.2799835205078 -165.0805511474609 C 189.5455780029297 -178.0843963623047 198.442626953125 -183.6327514648438 206.0294342041016 -183.6328430175781 Z M 142.5455780029297 -123.2131500244141 C 144.7800903320312 -123.2131500244141 146.9501800537109 -122.4647979736328 148.7096405029297 -121.0874481201172 L 150.7143402099609 -119.5181503295898 C 152.9835357666016 -117.7417984008789 154.3760833740234 -115.0728454589844 154.5350341796875 -112.1954956054688 C 154.6940307617188 -109.3181457519531 153.6039886474609 -106.5120468139648 151.5442810058594 -104.4965515136719 L 149.5395812988281 -102.5348510742188 C 134.2827911376953 -89.76505279541016 127.1519775390625 -75.33659362792969 127.1519775390625 -57.89384841918945 C 127.1519775390625 -53.96530151367188 127.4417266845703 -51.54544830322266 128.0123901367188 -48.19525146484375 C 129.2272338867188 -37.4322509765625 135.7912902832031 -24.09729957580566 147.6028900146484 -7.987949371337891 C 161.2744293212891 10.65800094604492 169.5580902099609 24.69765090942383 172.9271392822266 34.93325042724609 C 173.7360229492188 37.39079666137695 174.4478149414062 39.84222412109375 175.0620727539062 42.28445434570312 C 176.3157806396484 40.61510467529297 177.6895141601562 38.83450317382812 179.1943359375 36.93095016479492 C 190.7567901611328 22.30495071411133 205.24462890625 14.88895034790039 222.2554321289062 14.88890075683594 C 222.2554779052734 14.88890075683594 222.2554779052734 14.88890075683594 222.2555389404297 14.88890075683594 C 237.013427734375 14.88895034790039 249.1096343994141 20.03319931030273 258.2080688476562 30.1786994934082 C 267.9257202148438 41.01490020751953 273.4991455078125 54.95989990234375 273.4991760253906 68.43810272216797 C 273.4991760253906 68.77985382080078 273.481689453125 69.12139892578125 273.4466857910156 69.46134948730469 C 271.1077270507812 92.20120239257812 258.1469421386719 104.7245941162109 236.9518432617188 104.7245941162109 C 229.1707305908203 104.7245941162109 218.2615356445312 101.5343017578125 210.4781341552734 86.33575439453125 C 210.1759338378906 85.74559783935547 209.9331817626953 85.12689971923828 209.7534332275391 84.48875427246094 L 209.0903778076172 82.13475036621094 C 207.8385772705078 79.00005340576172 207.0556793212891 75.152099609375 207.0556793212891 71.57685089111328 C 207.0556793212891 61.06580352783203 209.4617309570312 52.47025299072266 214.2069854736328 46.02890014648438 C 216.2578735351562 43.24489593505859 218.6223754882812 40.96227264404297 221.2539672851562 39.205078125 C 208.9416046142578 39.28559875488281 196.7263336181641 49.63151550292969 184.9439849853516 69.95870208740234 L 182.2635345458984 74.00060272216797 C 181.0176696777344 75.86192321777344 179.1994781494141 77.22893524169922 177.1213226318359 77.92318725585938 C 174.7677917480469 96.633544921875 167.3426971435547 113.7484436035156 154.9607849121094 128.9483032226562 C 132.8799285888672 156.0543975830078 127.5068359375 158.0822448730469 121.8297271728516 158.0822448730469 C 118.8993377685547 158.0822448730469 116.1164398193359 156.7969055175781 114.2164306640625 154.5659027099609 L 112.8799285888672 152.9965515136719 C 109.4218292236328 148.9359436035156 109.7591857910156 142.8760528564453 113.6465911865234 139.2243041992188 L 115.3172302246094 137.6549530029297 C 126.3580780029297 128.2644500732422 131.5431365966797 116.4066467285156 131.5431823730469 101.0694046020508 C 131.5431823730469 94.5989990234375 130.3638305664062 87.74614715576172 128.037841796875 80.70130157470703 C 126.4150390625 75.78610229492188 121.7536315917969 65.98719787597656 108.7623901367188 47.21759796142578 C 97.049072265625 30.29445266723633 89.78558349609375 17.04290008544922 86.55682373046875 6.705650329589844 C 83.37283325195312 -3.488149642944336 81.75839233398438 -13.38789939880371 81.75839233398438 -22.71854972839355 C 81.75839233398438 -30.36989974975586 82.99462890625 -38.77095031738281 85.43283081054688 -47.68840026855469 L 86.11813354492188 -50.11644744873047 C 92.64883422851562 -69.56465148925781 102.2689819335938 -86.29330444335938 114.857177734375 -100.3090515136719 C 133.6550903320312 -121.2387008666992 137.3802795410156 -123.2131500244141 142.5455780029297 -123.2131500244141 Z" stroke="none" fill="#aaa"/>
      </g>
      <g id="패스_8" data-name="패스 8" transform="translate(-200.718 166.113)" fill="#aaa" stroke-linecap="round" stroke-linejoin="round">
        <path d="M 241.9149932861328 296.6018371582031 C 229.1914367675781 296.6018371582031 218.5265502929688 292.3359985351562 210.2166137695312 283.9228210449219 C 208.1191253662109 281.79931640625 206.2653656005859 279.4065246582031 204.7068634033203 276.8109436035156 C 203.1944885253906 274.2922668457031 201.9132995605469 271.5038757324219 200.8990631103516 268.5233154296875 C 198.9819946289062 262.889892578125 197.9423065185547 256.48681640625 197.7206115722656 248.9481353759766 L 197.7062377929688 248.4591979980469 L 197.786865234375 247.9768218994141 C 198.7107391357422 242.4495697021484 199.7920532226562 236.6148223876953 201.4341125488281 231.3918914794922 C 203.0546112060547 226.2373199462891 205.1418762207031 221.8850708007812 208.002685546875 217.695068359375 C 210.8519897460938 213.5218811035156 214.5845489501953 209.3433837890625 219.7491149902344 204.5451354980469 C 224.2849884033203 200.3310089111328 230.1662445068359 195.4086303710938 238.8186798095703 188.5846405029297 L 239.0234375 188.4231414794922 L 239.2438659667969 188.2838897705078 C 246.9769287109375 183.3968811035156 255.6511840820312 178.8565063476562 265.0257568359375 174.7888946533203 C 272.4951782226562 171.5478820800781 280.4281311035156 168.595947265625 288.6043090820312 166.0150146484375 C 301.0805053710938 162.0767364501953 310.1955261230469 160.2324523925781 312.2662048339844 159.8353271484375 C 313.7404174804688 159.3134155273438 318.6579284667969 157.6857452392578 326.8317565917969 156.0816955566406 C 332.4389953613281 154.9813232421875 338.4817504882812 154.1054534912109 344.7921752929688 153.4784545898438 C 352.648193359375 152.6978302001953 360.9508666992188 152.3020172119141 369.4696044921875 152.3020172119141 L 369.7879333496094 152.3022003173828 L 369.9924926757812 152.3024444580078 L 370.1963195800781 152.3193817138672 C 394.5279846191406 154.3411407470703 414.2239379882812 157.6983947753906 430.40966796875 162.5829467773438 C 440.23681640625 165.5485687255859 448.8538208007812 169.1353302001953 456.021240234375 173.2435150146484 C 459.9409790039062 175.4902038574219 463.5216674804688 177.9460144042969 466.6640014648438 180.5428314208984 C 469.9183959960938 183.2322845458984 472.7957153320312 186.1495361328125 475.2200012207031 189.2173461914062 L 475.4316711425781 189.4358215332031 L 486.5399475097656 185.1994171142578 C 504.9603271484375 176.1212005615234 518.8234252929688 168.3116607666016 530.1380615234375 160.63916015625 C 550.5684204101562 144.4473419189453 560.927734375 119.2675018310547 560.927734375 85.79638671875 C 560.927734375 68.21763610839844 555.992431640625 53.16501235961914 546.2589111328125 41.05663681030273 C 536.6561889648438 29.1109504699707 524.4298706054688 23.30401229858398 508.8813171386719 23.30401229858398 C 500.9884948730469 23.30401229858398 493.9558715820312 24.83570098876953 487.9788208007812 27.85651206970215 L 487.3594970703125 28.16951179504395 L 486.6783142089844 28.30207443237305 L 483.1204833984375 28.99423980712891 C 480.6798095703125 30.00663948059082 474.5669860839844 33.03214263916016 459.4709167480469 41.46345138549805 C 452.6119995117188 45.29413604736328 445.6234436035156 48.21257400512695 438.6994323730469 50.13763809204102 C 431.7217407226562 52.07763671875 424.6231689453125 53.06132507324219 417.6009826660156 53.06132507324219 L 417.6009216308594 51.39465713500977 L 417.6009216308594 53.06132507324219 C 401.3816223144531 53.06132507324219 387.7434387207031 46.76276397705078 377.06494140625 34.340576171875 C 371.8019409179688 28.21813774108887 367.8008117675781 21.17563819885254 365.1728210449219 13.4085750579834 C 362.576416015625 5.734887599945068 361.2599182128906 -2.833612203598022 361.2599182128906 -12.05898761749268 C 361.2599182128906 -18.68767547607422 361.9485473632812 -25.29923820495605 363.3065490722656 -31.70998764038086 C 364.6632995605469 -38.11429977416992 366.7247924804688 -44.49136352539062 369.4339294433594 -50.6640510559082 C 372.1300048828125 -56.80711364746094 375.5415649414062 -62.91604995727539 379.5736694335938 -68.82105255126953 C 383.5777893066406 -74.68496704101562 388.3060302734375 -80.51176452636719 393.6270751953125 -86.13957214355469 C 398.7514953613281 -91.62026214599609 403.957763671875 -96.54301452636719 409.1008605957031 -100.7704849243164 C 414.2933044433594 -105.0384902954102 419.5718688964844 -108.7217407226562 424.789794921875 -111.7177352905273 L 424.7928161621094 -111.7194900512695 L 424.7958068847656 -111.7211761474609 C 464.1178894042969 -134.2269287109375 489.3819580078125 -151.5551910400391 499.8890380859375 -163.2268218994141 L 505.1874389648438 -169.3768005371094 L 508.9885559082031 -173.7888641357422 L 512.7745971679688 -169.3639221191406 L 514.1146850585938 -167.7977447509766 L 515.3155517578125 -166.3942413330078 L 515.3155517578125 -164.547119140625 C 515.3155517578125 -162.4421081542969 514.3897094726562 -160.1978607177734 512.4017944335938 -157.4842376708984 C 510.9353637695312 -155.4822998046875 508.8573608398438 -153.1539306640625 506.0492553710938 -150.3659820556641 C 501.2951049804688 -145.6460723876953 494.3588256835938 -139.5580139160156 485.4022521972656 -132.2423553466797 C 485.82421875 -131.7544250488281 486.3790588378906 -131.1622772216797 487.1073608398438 -130.456298828125 C 489.2588195800781 -128.3708648681641 492.3475036621094 -125.8511123657227 496.2878112792969 -122.9668655395508 C 504.8187561035156 -116.7224273681641 517.9039306640625 -113.5562362670898 535.1798095703125 -113.5562973022461 C 545.4837036132812 -113.5562362670898 553.1493530273438 -116.5320510864258 558.6149291992188 -122.6537399291992 C 564.2289428710938 -128.9417419433594 566.9579467773438 -136.2414245605469 566.9579467773438 -144.9699249267578 C 566.9579467773438 -147.2860565185547 566.5311889648438 -150.9543609619141 565.6895751953125 -155.8729248046875 L 575.1098022460938 -158.9124298095703 C 578.1568603515625 -152.6802368164062 579.6380615234375 -147.7353668212891 579.6380615234375 -143.7953033447266 C 579.6380615234375 -138.7272338867188 579.103515625 -133.7577972412109 578.0491333007812 -129.0250549316406 C 576.9910278320312 -124.2752990722656 575.3817138671875 -119.6388626098633 573.2659912109375 -115.2444229125977 C 571.1592407226562 -110.8686752319336 568.4947509765625 -106.6179275512695 565.3464965820312 -102.6101760864258 C 562.22802734375 -98.64036560058594 558.5497436523438 -94.80086517333984 554.4136352539062 -91.19817352294922 C 550.3193969726562 -87.63192749023438 546.0775146484375 -84.46223449707031 541.8058471679688 -81.77717590332031 C 537.5032348632812 -79.07260894775391 533.05029296875 -76.78404998779297 528.5706787109375 -74.97517395019531 C 524.0694580078125 -73.15742492675781 519.41845703125 -71.77429962158203 514.7470092773438 -70.86417388916016 C 510.07373046875 -69.95367431640625 505.2542419433594 -69.49198913574219 500.4224243164062 -69.49198913574219 L 500.4224853515625 -69.49198913574219 C 500.4224243164062 -69.49198913574219 500.4224243164062 -69.49198913574219 500.4224243164062 -69.49198913574219 C 496.1223754882812 -69.49198913574219 490.7482299804688 -70.05023956298828 484.4491271972656 -71.15117645263672 L 484.3954162597656 -71.16055297851562 L 484.3419799804688 -71.17105102539062 L 480.3114929199219 -71.96636199951172 L 479.97216796875 -72.03336334228516 L 479.6452941894531 -72.1463623046875 C 472.7682495117188 -74.52455139160156 465.7072448730469 -78.15448760986328 458.6585693359375 -82.93536376953125 C 451.7960510253906 -87.58997344970703 444.74462890625 -93.47183227539062 437.6965637207031 -100.4202041625977 L 435.3288879394531 -102.2167510986328 C 434.4227600097656 -101.6416473388672 432.9368591308594 -100.4986572265625 430.7304382324219 -98.24117279052734 C 427.4859313964844 -94.92161560058594 423.4979858398438 -90.02410888671875 418.87744140625 -83.68473815917969 C 409.2882995605469 -70.52842712402344 404.4262390136719 -52.5495491027832 404.4262390136719 -30.24748802185059 C 404.4262390136719 -14.10142517089844 408.7433166503906 -1.057549834251404 417.257568359375 8.52188777923584 C 425.7376708984375 18.06301307678223 437.4674987792969 22.70107460021973 453.1173095703125 22.70107460021973 C 460.1248779296875 22.70107460021973 468.8545532226562 20.11232566833496 479.0639343261719 15.00670051574707 L 479.2722473144531 14.902512550354 L 479.4893798828125 14.81813812255859 L 483.1906433105469 13.37992763519287 C 492.8758239746094 7.955721855163574 502.4882202148438 3.817225933074951 511.7667541503906 1.077200174331665 C 521.2445678710938 -1.721674799919128 530.6400146484375 -3.140862226486206 539.6920166015625 -3.140862226486206 C 545.1902465820312 -3.140862226486206 550.4701538085938 -2.652487277984619 555.3851318359375 -1.689362287521362 C 560.3565673828125 -0.7151747941970825 565.0919799804688 0.7714502215385437 569.4600219726562 2.729137659072876 C 573.8529663085938 4.698012828826904 577.9891967773438 7.194637775421143 581.7536010742188 10.14963722229004 C 585.5037841796875 13.09351253509521 588.981689453125 16.56832504272461 592.0906982421875 20.47763824462891 C 595.1427612304688 24.31545066833496 597.8518676757812 28.42382431030273 600.1428833007812 32.68863677978516 C 602.43310546875 36.95226287841797 604.3677368164062 41.48807525634766 605.8928833007812 46.17013931274414 C 607.412109375 50.83413696289062 608.5665893554688 55.77088928222656 609.32421875 60.84326171875 C 610.077392578125 65.88532257080078 610.459228515625 71.20144653320312 610.459228515625 76.64407348632812 C 610.459228515625 86.28432464599609 608.9639282226562 95.58464050292969 606.0149536132812 104.2865753173828 C 603.0670166015625 112.9852600097656 598.592529296875 121.3035736083984 592.716064453125 129.0103912353516 C 586.9171752929688 136.6153259277344 579.2835083007812 144.19189453125 570.0269775390625 151.5296936035156 C 560.8869018554688 158.7752075195312 549.8902587890625 166.0060119628906 537.3423461914062 173.0211944580078 L 537.3348388671875 173.025390625 L 537.327392578125 173.0295715332031 C 509.2565002441406 188.5966949462891 497.3446960449219 194.9980163574219 491.8073120117188 197.4917602539062 L 491.61767578125 197.5771331787109 L 491.4216918945312 197.6464538574219 C 471.9496765136719 204.5346374511719 458.5771179199219 210.7853240966797 449.3374938964844 217.3175811767578 C 441.0481262207031 223.1781311035156 433.4140014648438 231.0836944580078 426.6471862792969 240.8148193359375 L 423.6331787109375 245.1490783691406 L 419.4689331054688 241.9043273925781 L 417.4589233398438 240.338134765625 L 415.5321044921875 238.8367614746094 L 415.5321044921875 236.3940734863281 C 415.5321044921875 233.4749450683594 416.9682922363281 230.0855102539062 420.0518798828125 225.7273254394531 C 422.221923828125 222.6602020263672 425.1914367675781 219.1132507324219 429.0877380371094 214.9378967285156 C 428.4607238769531 214.1657409667969 427.3963317871094 213.0506286621094 425.5995483398438 211.5507659912109 C 422.4026794433594 208.882080078125 417.73486328125 205.7089538574219 411.7257995605469 202.1195068359375 C 406.4024353027344 198.939697265625 391.2686767578125 195.8155059814453 370.2050476074219 193.5480194091797 C 357.1146850585938 192.1388854980469 335.5994262695312 190.4933319091797 318.0444946289062 190.4933319091797 C 308.8533630371094 190.4933319091797 292.9803771972656 193.2310180664062 277.6059875488281 197.4678802490234 C 260.4930419921875 202.1838836669922 246.6498107910156 207.9355163574219 239.6259307861328 213.2478942871094 C 222.3356781005859 226.3250732421875 211.7386169433594 235.0704498291016 211.7386169433594 249.4618835449219 C 211.7386169433594 259.3796997070312 214.5631866455078 267.1057739257812 220.3737487792969 273.0815124511719 C 226.1457366943359 279.0177001953125 233.6303100585938 281.9033203125 243.2550506591797 281.9033203125 C 257.1315612792969 281.9033203125 268.317626953125 276.007080078125 277.4525451660156 263.8776245117188 L 277.5596313476562 263.7353820800781 L 277.6766052246094 263.6011352539062 L 280.021728515625 260.9093322753906 L 286.0733032226562 253.963134765625 L 288.5999450683594 262.8224487304688 L 289.2699279785156 265.1716918945312 L 289.461669921875 265.8439636230469 L 289.461669921875 266.5429992675781 C 289.461669921875 269.134521484375 288.1944885253906 271.8337707519531 285.3529968261719 275.2950744628906 C 283.1846313476562 277.9364013671875 280.0894165039062 281.0346984863281 275.8905639648438 284.7671508789062 C 271.4491271972656 288.7151489257812 266.3009338378906 291.7157592773438 260.5889282226562 293.6856994628906 C 254.9781799316406 295.6206970214844 248.6953735351562 296.6018371582031 241.9149932861328 296.6018371582031 Z" stroke="none"/>
        <path d="M 508.9754638671875 -166.11328125 L 503.6414794921875 -159.9219970703125 C 492.7465515136719 -147.7963256835938 467.2925415039062 -130.2829437255859 427.2794799804688 -107.3816680908203 C 417.2778625488281 -101.6390075683594 407.2745361328125 -93.41661071777344 397.2695922851562 -82.71440124511719 C 376.5964660644531 -60.85321044921875 366.2599487304688 -37.30140686035156 366.2599487304688 -12.05900573730469 C 366.2599487304688 5.380996704101562 371.1253967285156 19.76106262207031 380.8565368652344 31.08119964599609 C 390.5877380371094 42.40132904052734 402.8356628417969 48.06133270263672 417.6007385253906 48.06133270263672 C 417.6015319824219 48.06133270263672 417.6002807617188 48.06133270263672 417.6011047363281 48.06133270263672 C 430.8018188476562 48.06133270263672 443.9470825195312 44.40648651123047 457.0328063964844 37.09812927246094 C 470.1192016601562 29.78932952880859 478.3410034179688 25.48233032226562 481.6981506347656 24.17719268798828 L 485.7235412597656 23.39406585693359 C 492.4376831054688 20.000732421875 500.1570129394531 18.30399322509766 508.8812866210938 18.30399322509766 C 525.8831787109375 18.30399322509766 539.641357421875 24.843994140625 550.1559448242188 37.92399597167969 C 560.6705322265625 51.00406646728516 565.927734375 66.96153259277344 565.927734375 85.79639434814453 C 565.927734375 121.1169967651367 554.9839477539062 147.4095916748047 533.096435546875 164.6741943359375 C 521.9293212890625 172.2603912353516 508.1938171386719 180.1095886230469 488.5396728515625 189.7881317138672 L 474.1341247558594 195.2819213867188 L 471.4487915039062 192.5105285644531 C 453.1033325195312 169.0382690429688 410.3933410644531 160.6767272949219 369.7821960449219 157.3022003173828 C 332.9511413574219 157.2598724365234 313.5893249511719 164.6741943359375 313.5893249511719 164.6741943359375 C 313.5893249511719 164.6741943359375 274.8676147460938 171.685791015625 241.9149169921875 192.5105285644531 C 210.5589599609375 217.2403259277344 206.9151611328125 223.6943359375 202.7183837890625 248.8011322021484 C 203.1187133789062 262.4158020019531 206.403564453125 272.9473876953125 213.77392578125 280.4091796875 C 221.1441650390625 287.8709106445312 230.5245361328125 291.601806640625 241.9149169921875 291.601806640625 C 254.422119140625 291.601806640625 264.6400756835938 288.0779418945312 272.5686645507812 281.0301513671875 C 280.497314453125 273.9823303222656 284.461669921875 269.1532592773438 284.461669921875 266.5429992675781 L 283.7916870117188 264.1937255859375 L 281.446533203125 266.8855895996094 C 271.3961181640625 280.230712890625 258.6656494140625 286.9032592773438 243.2550048828125 286.9032592773438 C 232.311279296875 286.9032592773438 223.4892578125 283.4579467773438 216.7890014648438 276.567138671875 C 210.0887451171875 269.6763305664062 206.7385864257812 260.6412658691406 206.7385864257812 249.4618530273438 C 206.7385864257812 232.0381317138672 219.9358520507812 221.8710632324219 236.6097412109375 209.2600708007812 C 253.2836303710938 196.6490631103516 298.5718688964844 185.4933319091797 318.0444641113281 185.4933319091797 C 344.0045471191406 185.4933319091797 400.5245971679688 189.6045989990234 414.2898864746094 197.8269958496094 C 428.0549926757812 206.0493927001953 434.9375915527344 212.1183319091797 434.9375915527344 216.0337982177734 C 425.3340148925781 226.0222625732422 420.5320739746094 232.8089904785156 420.5320739746094 236.3940734863281 L 422.5421447753906 237.9602661132812 C 429.6750793457031 227.7026062011719 437.6448059082031 219.4607849121094 446.4510803222656 213.23486328125 C 455.2574157714844 207.0089263916016 468.3551330566406 200.5025329589844 489.754150390625 192.9326629638672 C 495.550537109375 190.3223876953125 509.4850769042969 182.7525329589844 534.9024047851562 168.6569213867188 C 559.64794921875 154.8223876953125 577.5938110351562 140.5962677001953 588.7400512695312 125.9786605834961 C 599.8861083984375 111.3609924316406 605.459228515625 94.91613006591797 605.459228515625 76.64405822753906 C 605.459228515625 55.76172637939453 599.6985473632812 38.07699584960938 588.17724609375 23.58985900878906 C 576.6560668945312 9.102729797363281 560.4942626953125 1.859130859375 539.6920166015625 1.859130859375 C 522.466796875 1.859130859375 504.3463439941406 7.21026611328125 485.3309326171875 17.91246032714844 L 481.3002624511719 19.47866058349609 C 470.3391418457031 24.96026611328125 460.9447326660156 27.70106506347656 453.1173400878906 27.70106506347656 C 436.1154174804688 27.70106506347656 422.9164733886719 22.41526031494141 413.5204162597656 11.84352874755859 C 404.1242065429688 1.271865844726562 399.42626953125 -12.758544921875 399.42626953125 -30.24746704101562 C 399.42626953125 -53.74014282226562 404.5631408691406 -72.53427124023438 414.8367919921875 -86.62980651855469 C 425.110595703125 -100.7254638671875 432.2575378417969 -107.7732086181641 436.2777404785156 -107.7732086181641 L 440.9783325195312 -104.2064666748047 C 454.8604736328125 -90.473876953125 468.2941284179688 -81.36233520507812 481.2794189453125 -76.87181091308594 L 485.3099365234375 -76.0765380859375 C 491.3541259765625 -75.0201416015625 496.3916015625 -74.49200439453125 500.4222106933594 -74.49200439453125 C 500.4233093261719 -74.49200439453125 500.4213562011719 -74.49200439453125 500.4224853515625 -74.49200439453125 C 518.5537109375 -74.49200439453125 535.458251953125 -81.31829833984375 551.129638671875 -94.96853637695312 C 566.8019409179688 -108.6195373535156 574.6380615234375 -124.8950653076172 574.6380615234375 -143.7952575683594 C 574.6380615234375 -146.9276123046875 573.2979736328125 -151.234619140625 570.617919921875 -156.7162780761719 C 571.51123046875 -151.4956665039062 571.9579467773438 -147.5802001953125 571.9579467773438 -144.9699401855469 C 571.9579467773438 -135.0508117675781 568.7535400390625 -126.5020751953125 562.3446655273438 -119.32373046875 C 555.9357299804688 -112.1454772949219 546.8807983398438 -108.5562744140625 535.1798095703125 -108.5563354492188 C 516.733154296875 -108.5562744140625 502.7847290039062 -112.0149383544922 493.3345336914062 -118.9322052001953 C 483.8844604492188 -125.8494720458984 479.1593322753906 -130.7438049316406 479.1593322753906 -133.6151428222656 C 499.9301452636719 -150.3699951171875 510.3155517578125 -160.6806640625 510.3155517578125 -164.5471496582031 L 508.9754638671875 -166.11328125 M 508.9754638671875 -176.11328125 C 508.9811401367188 -176.11328125 508.9867248535156 -176.11328125 508.9924011230469 -176.11328125 C 511.9087524414062 -176.1083374023438 514.6776123046875 -174.8305358886719 516.5736083984375 -172.6146850585938 L 517.9136962890625 -171.0485229492188 C 519.4637451171875 -169.2369995117188 520.3155517578125 -166.9312744140625 520.3155517578125 -164.5471496582031 C 520.3155517578125 -158.8666381835938 518.2125244140625 -153.0113220214844 492.9085998535156 -131.9476013183594 C 494.4390869140625 -130.6452331542969 496.4927368164062 -129.0131988525391 499.2410583496094 -127.00146484375 C 506.8968811035156 -121.3976745605469 518.9884033203125 -118.5562744140625 535.1797485351562 -118.5563354492188 C 543.9771728515625 -118.5562744140625 550.4228515625 -120.9858093261719 554.8851928710938 -125.9837341308594 C 559.6444091796875 -131.3143920898438 561.9579467773438 -137.5248718261719 561.9579467773438 -144.9699401855469 C 561.9579467773438 -146.1148071289062 561.802490234375 -148.9441223144531 560.76123046875 -155.0297241210938 C 559.92236328125 -159.9321899414062 562.81396484375 -164.7059326171875 567.54736328125 -166.2332153320312 C 572.28076171875 -167.7604064941406 577.4170532226562 -165.5768127441406 579.6016845703125 -161.1085510253906 C 583.0377197265625 -154.0806579589844 584.6380615234375 -148.5792846679688 584.6380615234375 -143.7952575683594 C 584.6380615234375 -121.9634094238281 575.573974609375 -102.9986724853516 557.6976928710938 -87.42793273925781 C 540.22509765625 -72.20880126953125 520.954833984375 -64.49200439453125 500.4224853515625 -64.49200439453125 C 495.7700805664062 -64.49200439453125 490.2636108398438 -65.05914306640625 483.5882873535156 -66.22587585449219 L 479.3435974121094 -67.06094360351562 C 478.8916625976562 -67.15013122558594 478.4464721679688 -67.27040100097656 478.0111389160156 -67.42094421386719 C 464.0998229980469 -72.23171997070312 449.741943359375 -81.76165771484375 435.3118286132812 -95.7589111328125 C 432.952392578125 -93.48503112792969 429.0130615234375 -89.10203552246094 422.9180603027344 -80.73966979980469 C 413.9655456542969 -68.45680236816406 409.42626953125 -51.46881103515625 409.42626953125 -30.24746704101562 C 409.42626953125 -15.153076171875 413.2103271484375 -3.557998657226562 420.9948120117188 5.2001953125 C 428.4711303710938 13.61199951171875 438.9784851074219 17.70106506347656 453.1173400878906 17.70106506347656 C 459.341552734375 17.70106506347656 467.3188171386719 15.28993225097656 476.8274841308594 10.53472900390625 L 481.0166931152344 8.867027282714844 C 501.2519836425781 -2.418807983398438 520.9903564453125 -8.140869140625 539.6920166015625 -8.140869140625 C 563.5980834960938 -8.140869140625 582.544189453125 0.4407272338867188 596.0040283203125 17.36553192138672 C 608.91357421875 33.59825897216797 615.459228515625 53.54246520996094 615.459228515625 76.64405822753906 C 615.459228515625 97.07192993164062 609.14501953125 115.7105255126953 596.6920776367188 132.0421295166016 C 584.7621459960938 147.6874694824219 565.6149291992188 162.9431304931641 539.7822875976562 177.3854675292969 C 511.5466003417969 193.0440673828125 499.5374755859375 199.4942016601562 493.8602600097656 202.0507965087891 C 474.3236083984375 208.9984741210938 460.9564819335938 215.2265319824219 452.223876953125 221.4003295898438 C 444.410400390625 226.9243316650391 437.186279296875 234.4167327880859 430.7522583007812 243.6694030761719 C 429.184326171875 245.9241943359375 426.7580871582031 247.4348602294922 424.0428161621094 247.8469848632812 C 421.3273010253906 248.2591247558594 418.5621948242188 247.5363922119141 416.3958740234375 245.848388671875 L 414.3858032226562 244.2821960449219 C 411.9540100097656 242.3873901367188 410.5320739746094 239.4769287109375 410.5320739746094 236.3940734863281 C 410.5320739746094 231.5802764892578 412.6582641601562 225.9261169433594 422.1341857910156 215.1607360839844 C 419.7734375 213.2294921875 415.7983093261719 210.3762512207031 409.1617431640625 206.4119873046875 C 399.489013671875 200.6341857910156 350.1510620117188 195.4933319091797 318.0444641113281 195.4933319091797 C 300.4946594238281 195.4933319091797 257.4654541015625 206.0242614746094 242.6420288085938 217.2357330322266 C 226.0985107421875 229.7481384277344 216.7385864257812 237.4141235351562 216.7385864257812 249.4618530273438 C 216.7385864257812 258.0136108398438 219.1002807617188 264.5994567871094 223.95849609375 269.5958557128906 C 228.7396850585938 274.5130004882812 235.0516357421875 276.9032592773438 243.2550048828125 276.9032592773438 C 255.4535522460938 276.9032592773438 265.3331909179688 271.6586608886719 273.45849609375 260.8696594238281 L 276.2516479492188 257.6249389648438 C 278.6605224609375 254.8600616455078 282.389404296875 253.6353302001953 285.9683227539062 254.4335327148438 C 289.5474243164062 255.2316589355469 292.4025268554688 257.9247436523438 293.408203125 261.4511108398438 L 294.0781860351562 263.8004150390625 C 294.3325805664062 264.6923828125 294.461669921875 265.615478515625 294.461669921875 266.5429992675781 C 294.461669921875 272.6707763671875 290.3286743164062 278.6228637695312 279.2123413085938 288.5042114257812 C 269.435302734375 297.1951293945312 256.8865966796875 301.601806640625 241.9149169921875 301.601806640625 C 227.8051147460938 301.601806640625 215.9434814453125 296.8359375 206.6593627929688 287.4364624023438 C 197.775634765625 278.4425964355469 193.2168579101562 265.9010009765625 192.7227172851562 249.0950622558594 C 192.70361328125 248.4447326660156 192.7479858398438 247.7941284179688 192.8552856445312 247.1524658203125 C 197.6557006835938 218.4342651367188 203.264404296875 210.2575378417969 235.7223510742188 184.6586608886719 C 235.9951171875 184.4435272216797 236.2789916992188 184.2427368164062 236.57275390625 184.0570678710938 C 268.46630859375 163.9016265869141 304.8516235351562 156.1873168945312 310.9679870605469 154.9933013916016 C 315.4864807128906 153.4417877197266 335.5153198242188 147.3024749755859 369.4694213867188 147.302001953125 C 369.7458190917969 147.302001953125 370.3348083496094 147.3136596679688 370.6102600097656 147.3365325927734 C 425.1587219238281 151.8692016601562 459.1283874511719 163.3941192626953 476.9548645019531 183.503662109375 L 484.9763488769531 180.4445343017578 C 502.513671875 171.7599945068359 516.2900390625 164.0021362304688 527.47705078125 156.4023895263672 C 546.4337158203125 141.4173889160156 555.927734375 118.1844635009766 555.927734375 85.79639434814453 C 555.927734375 69.15472412109375 551.4903564453125 55.54492950439453 542.3619384765625 44.18926239013672 C 533.769287109375 33.50012969970703 522.8176879882812 28.30399322509766 508.8812866210938 28.30399322509766 C 501.7793273925781 28.30399322509766 495.5055541992188 29.65479278564453 490.2341918945312 32.31899261474609 C 489.412353515625 32.73432922363281 488.5370788574219 33.03419494628906 487.6332092285156 33.20999908447266 L 484.591064453125 33.80184173583984 C 482.3128051757812 34.79745483398438 476.5336608886719 37.6607666015625 461.9088745117188 45.82872772216797 C 447.3753356933594 53.94573211669922 432.468017578125 58.06133270263672 417.60107421875 58.06133270263672 C 399.8587341308594 58.06133270263672 384.9447326660156 51.17713165283203 373.2733459472656 37.59999847412109 C 361.9840698242188 24.46733093261719 356.2599487304688 7.759597778320312 356.2599487304688 -12.05900573730469 C 356.2599487304688 -39.82406616210938 367.6130065917969 -65.90766906738281 390.0038757324219 -89.58526611328125 C 400.6025390625 -100.9228057861328 411.4818115234375 -109.8422088623047 422.3001403808594 -116.0538024902344 C 461.2119445800781 -138.3247985839844 486.0724182128906 -155.3305358886719 496.2030029296875 -166.60546875 L 501.3994140625 -172.6403503417969 C 503.2991638183594 -174.8454895019531 506.0653686523438 -176.11328125 508.9754638671875 -176.11328125 Z" stroke="none" fill="#aaa"/>
      </g>
    </g>
  </g>
</svg>
