<svg xmlns="http://www.w3.org/2000/svg" xmlns:xlink="http://www.w3.org/1999/xlink" width="512" height="512" viewBox="0 0 512 512">
  <defs>
    <clipPath id="clip-logo">
      <rect width="512" height="512"/>
    </clipPath>
  </defs>
  <g id="logo" clip-path="url(#clip-logo)">
    <g id="그룹_1" data-name="그룹 1" transform="translate(-317.856 -613.967)">
      <g id="패스_7" data-name="패스 7" transform="translate(280.2 825.633)" fill="#333" stroke-linecap="round" stroke-linejoin="round">
        <path d="M 121.8297424316406 149.0822601318359 L 121.3678665161133 149.0822601318359 L 121.0684127807617 148.7306365966797 L 119.7319107055664 147.1613006591797 L 119.1143646240234 146.4361724853516 L 119.8085784912109 145.7840881347656 L 121.4792022705078 144.2147216796875 L 121.4974899291992 144.197509765625 L 121.5166625976562 144.1812591552734 C 134.1417083740234 133.4622650146484 140.5431518554688 118.9573440551758 140.5431976318359 101.0694274902344 C 140.5431976318359 93.63871765136719 139.2111663818359 85.8365478515625 136.5840759277344 77.87959289550781 C 133.9535827636719 69.91238403320312 127.0828247070312 57.87288284301758 116.1626586914062 42.09550857543945 C 110.6563262939453 34.14004898071289 106.0996627807617 26.91180038452148 102.6192398071289 20.61159133911133 C 99.12253570556641 14.28179931640625 96.60865783691406 8.700424194335938 95.14749145507812 4.022382736206055 C 92.23507690429688 -5.301950454711914 90.75836944580078 -14.29890918731689 90.75836944580078 -22.71853446960449 C 90.75836944580078 -29.5682430267334 91.88740539550781 -37.17070007324219 94.11420440673828 -45.31474304199219 L 94.11528778076172 -45.31874084472656 L 94.11640930175781 -45.3227424621582 L 94.77941131591797 -47.67061614990234 L 94.78611755371094 -47.69436645507812 L 94.79399108886719 -47.71774291992188 C 97.78890991210938 -56.61903381347656 101.5576629638672 -65.04953002929688 105.995491027832 -72.77503204345703 C 110.4355316162109 -80.50444793701172 115.6698684692383 -87.74491119384766 121.5529937744141 -94.29524230957031 C 127.4049072265625 -100.8107452392578 132.083740234375 -105.7700347900391 135.4595336914062 -109.0353698730469 C 140.1639099121094 -113.5858688354492 141.6454162597656 -114.2131195068359 142.5455780029297 -114.2131195068359 L 142.8904113769531 -114.2131195068359 L 143.1619567871094 -114.0005340576172 L 145.1667022705078 -112.4312438964844 L 146.0657043457031 -111.7275314331055 L 145.2496948242188 -110.9290771484375 L 143.2449493408203 -108.9673690795898 L 143.2166137695312 -108.9396591186523 L 143.1862030029297 -108.9142837524414 C 126.5746994018555 -95.05516052246094 118.1519927978516 -77.88941192626953 118.1519927978516 -57.89386749267578 C 118.1519927978516 -53.37074279785156 118.5143280029297 -50.3585319519043 119.1401138305664 -46.68403244018555 L 119.1449890136719 -46.65549087524414 L 119.1482009887695 -46.62674331665039 C 120.458869934082 -34.85186767578125 127.5904541015625 -20.06145095825195 140.3448638916016 -2.666242122650146 C 146.7932434082031 6.128382682800293 152.0805358886719 13.9773416519165 156.0598602294922 20.66250801086426 C 160.0601959228516 27.38304901123047 162.8589477539062 33.13113403320312 164.3782806396484 37.74708938598633 C 165.8904571533203 42.34121704101562 167.0407867431641 46.93467330932617 167.7974090576172 51.39988327026367 C 168.5550384521484 55.87096786499023 168.9391632080078 60.33913421630859 168.9391632080078 64.6802978515625 C 168.9391632080078 70.12763214111328 168.49853515625 75.50300598144531 167.6295318603516 80.65705108642578 C 166.7599945068359 85.81421661376953 165.4371643066406 90.89442443847656 163.6978607177734 95.75650787353516 C 161.9586181640625 100.6182556152344 159.7542419433594 105.3980102539062 157.1459503173828 109.963005065918 C 154.5394897460938 114.5248031616211 151.4566192626953 118.9999237060547 147.9829864501953 123.2641296386719 C 141.0836944580078 131.7335968017578 135.4389953613281 138.1805419921875 131.2055358886719 142.4259643554688 C 129.0645294189453 144.5730133056641 127.2290344238281 146.2121276855469 125.7499923706055 147.2978057861328 C 124.0914535522461 148.5152130126953 122.8457412719727 149.0822601318359 121.8297424316406 149.0822601318359 Z M 236.9518280029297 95.72463226318359 C 233.1032867431641 95.72463226318359 229.5848236083984 94.57005310058594 226.4941558837891 92.29296875 C 223.4532012939453 90.05250549316406 220.7598266601562 86.66796875 218.4888305664062 82.23338317871094 L 218.4434051513672 82.14463043212891 L 218.4163665771484 82.04867553710938 L 217.7658386230469 79.73909759521484 C 216.6310882568359 76.77709197998047 216.0556945800781 74.03108978271484 216.0556945800781 71.57684326171875 C 216.0556945800781 67.32496643066406 216.5045318603516 63.47671508789062 217.3896942138672 60.13892364501953 C 218.2850799560547 56.76284027099609 219.6521606445312 53.81150817871094 221.4530334472656 51.36692428588867 C 225.1039886474609 46.41096496582031 229.968994140625 43.89804840087891 235.9129028320312 43.89804840087891 C 237.4570770263672 43.89804840087891 238.5983734130859 43.68684005737305 239.3049926757812 43.27029800415039 C 239.8636627197266 42.94100952148438 240.1127777099609 42.49767303466797 240.1127777099609 41.83288192749023 C 240.1127777099609 39.60150909423828 238.4888610839844 37.09000778198242 235.2861938476562 34.36813354492188 C 232.0355377197266 31.60538291931152 227.3633270263672 30.20459175109863 221.3993225097656 30.20459175109863 C 205.5967864990234 30.20459175109863 190.7117004394531 42.06129837036133 177.1574554443359 65.44542694091797 L 177.1412353515625 65.47334289550781 L 177.123291015625 65.50017547607422 L 174.7844085693359 68.994384765625 L 174.0491638183594 70.09288024902344 L 173.1920776367188 69.08650970458984 L 171.8555755615234 67.51717376708984 L 171.6169128417969 67.23692321777344 L 171.6169128417969 66.86879730224609 C 171.6169128417969 64.83238220214844 172.8438720703125 61.82317352294922 175.3678741455078 57.66913223266602 C 177.7815399169922 53.69667434692383 181.4443664550781 48.59721755981445 186.2546539306641 42.5123405456543 C 188.6873321533203 39.43509292602539 191.2928619384766 36.70254898071289 193.9989166259766 34.39063262939453 C 196.7136535644531 32.07125854492188 199.6056213378906 30.11021614074707 202.5943603515625 28.56188201904297 C 205.5878295898438 27.01117515563965 208.7609100341797 25.83167457580566 212.0255737304688 25.05621528625488 C 215.2864532470703 24.28167533874512 218.7282867431641 23.88892364501953 222.2554931640625 23.88892364501953 C 228.2869567871094 23.88892364501953 233.8054962158203 24.92163276672363 238.6577911376953 26.95842361450195 C 243.5244140625 29.00121688842773 247.8477783203125 32.10630035400391 251.5077362060547 36.18746566772461 C 255.3246154785156 40.44363403320312 258.5148620605469 45.43967437744141 260.7336730957031 50.63554763793945 C 263.2322387695312 56.48663330078125 264.4991455078125 62.47629928588867 264.4991455078125 68.43813323974609 L 264.4991455078125 68.48942565917969 L 264.493896484375 68.54046630859375 C 263.9984130859375 73.35809326171875 262.9742431640625 77.58646392822266 261.4499206542969 81.10813140869141 C 259.9737854003906 84.51837921142578 257.9849853515625 87.36917114257812 255.5387878417969 89.581298828125 C 253.2062377929688 91.69058990478516 250.3954925537109 93.27567291259766 247.1845397949219 94.29254913330078 C 244.1837768554688 95.2427978515625 240.7410278320312 95.72463226318359 236.9518280029297 95.72463226318359 Z M 193.8809051513672 9.80317497253418 C 189.2428741455078 9.80317497253418 185.0046539306641 9.15809154510498 181.2840728759766 7.885799407958984 C 177.5369110107422 6.604424476623535 174.2137908935547 4.653341293334961 171.4069519042969 2.086799621582031 C 168.6015319824219 -0.4785338044166565 166.4648742675781 -3.360325574874878 165.0563201904297 -6.478575706481934 C 163.6451568603516 -9.602659225463867 162.9296112060547 -13.04120063781738 162.9296112060547 -16.69861793518066 C 162.9296112060547 -19.07524299621582 163.2076568603516 -21.19440841674805 163.7559967041016 -22.99728393554688 C 164.3192443847656 -24.84915924072266 165.1830291748047 -26.42178344726562 166.3233642578125 -27.6714916229248 C 168.5992431640625 -30.16570091247559 172.0094909667969 -31.43036651611328 176.4593658447266 -31.43036651611328 C 180.3714141845703 -31.43036651611328 183.595947265625 -29.90024185180664 186.0434112548828 -26.88253402709961 C 188.4397888183594 -23.92770004272461 189.6549072265625 -20.43536758422852 189.6549987792969 -16.50249290466309 C 189.6549987792969 -10.505539894104 186.5382690429688 -5.520072460174561 180.3886108398438 -1.675456762313843 C 180.7029571533203 -0.7669704556465149 181.8430786132812 0.2072682082653046 183.7324981689453 1.172424554824829 C 186.2299957275391 2.448257923126221 188.8645324707031 3.095132827758789 191.5628662109375 3.095132827758789 C 198.7634582519531 3.095132827758789 205.2149963378906 0.2898828387260437 210.73828125 -5.24274206161499 C 216.2620391845703 -10.77582550048828 219.0628204345703 -17.93020057678223 219.0628204345703 -26.50703430175781 C 219.0628204345703 -33.61885452270508 217.4005737304688 -40.44560623168945 214.1222839355469 -46.79829406738281 L 212.1178283691406 -49.89624404907227 L 212.1006622314453 -49.92278289794922 L 212.0852355957031 -49.95028305053711 C 209.2148742675781 -55.06790924072266 202.388916015625 -62.70932388305664 191.7969512939453 -72.66232299804688 C 186.4299468994141 -77.70557403564453 181.9575805664062 -82.44261932373047 178.5041198730469 -86.74178314208984 C 175.0234069824219 -91.074951171875 172.4720001220703 -95.095947265625 170.9207916259766 -98.69307708740234 C 169.3790283203125 -102.2682800292969 168.2061157226562 -105.9288635253906 167.4346160888672 -109.5731201171875 C 166.6624450683594 -113.2206573486328 166.2709045410156 -116.953369140625 166.2709045410156 -120.6675338745117 C 166.2709045410156 -127.9632034301758 167.6447906494141 -134.8610382080078 170.3544158935547 -141.1693725585938 C 173.0618286132812 -147.47265625 177.1751556396484 -153.3551635742188 182.5801544189453 -158.6535339355469 C 193.549072265625 -169.4059143066406 201.2194061279297 -174.6327819824219 206.029541015625 -174.6328277587891 L 206.2527008056641 -174.6328277587891 L 206.4546661376953 -174.5379486083984 L 209.7959136962891 -172.9685821533203 L 211.2667846679688 -172.2776947021484 L 209.9871978759766 -171.2760314941406 L 206.9800720214844 -168.9220275878906 L 206.9192047119141 -168.8743743896484 L 206.8516998291016 -168.8366241455078 C 197.7532043457031 -163.7492065429688 193.330322265625 -156.5913238525391 193.3303680419922 -146.9539947509766 C 193.330322265625 -140.5888671875 194.7055358886719 -134.3256988525391 197.4177856445312 -128.3383636474609 C 200.1237030029297 -122.364990234375 207.1099853515625 -114.8325729370117 218.1826171875 -105.950325012207 C 223.8130798339844 -101.4336166381836 228.5233612060547 -97.23091125488281 232.1826171875 -93.45895385742188 C 235.8635101318359 -89.66472625732422 238.5949249267578 -86.18741607666016 240.3014068603516 -83.12335968017578 C 241.0849304199219 -81.89350891113281 241.7392578125 -80.64273071289062 242.3584289550781 -79.19134521484375 C 245.5211791992188 -72.55110168457031 247.1246185302734 -64.59403228759766 247.1246643066406 -55.53986740112305 C 247.1246643066406 -50.79574203491211 246.7381591796875 -46.19974136352539 245.9759063720703 -41.87957382202148 C 245.2122497558594 -37.55141067504883 244.0500335693359 -33.37865829467773 242.5215759277344 -29.47711753845215 C 240.99169921875 -25.57195091247559 239.0522766113281 -21.82978439331055 236.7571563720703 -18.35445022583008 C 234.4631958007812 -14.88082504272461 231.7500762939453 -11.57724189758301 228.6932373046875 -8.53545093536377 C 222.6056976318359 -2.477867126464844 216.6058654785156 2.13504958152771 210.8604583740234 5.175174713134766 C 205.0569152832031 8.246090888977051 199.3441619873047 9.80317497253418 193.8809051513672 9.80317497253418 Z" stroke="none"/>
        <path d="M 206.029541015625 -173.6328430175781 C 201.5361938476562 -173.6327972412109 193.953125 -168.4016723632812 183.2801971435547 -157.9394226074219 C 172.6073303222656 -147.4771423339844 167.2709045410156 -135.0531311035156 167.2709045410156 -120.6675491333008 C 167.2709045410156 -113.3439254760742 168.7936248779297 -106.1511306762695 171.8390350341797 -99.08908843994141 C 174.8844146728516 -92.02700805664062 181.7653198242188 -83.46104431152344 192.4817352294922 -73.39109039306641 C 203.1981201171875 -63.32117462158203 210.0233306884766 -55.67063140869141 212.9574127197266 -50.43946838378906 L 214.9882354736328 -47.30079650878906 C 218.3713226318359 -40.76188278198242 220.0627899169922 -33.83058929443359 220.0627899169922 -26.50700759887695 C 220.0627899169922 -17.61404800415039 217.1905364990234 -10.29050731658936 211.4459991455078 -4.536256790161133 C 205.7014465332031 1.217992782592773 199.0737457275391 4.095117568969727 191.5628662109375 4.095117568969727 C 188.6914978027344 4.095117568969727 185.9297027587891 3.417741775512695 183.2775726318359 2.062950134277344 C 180.6254577636719 0.7081584930419922 179.2993621826172 -0.7068824768066406 179.2994079589844 -2.182216644287109 C 185.5364532470703 -5.897132873535156 188.6549987792969 -10.6705493927002 188.6549987792969 -16.50246620178223 C 188.6549072265625 -20.21738243103027 187.5255279541016 -23.4674243927002 185.2667388916016 -26.25263214111328 C 183.0079040527344 -29.03779983520508 180.0721130371094 -30.43038177490234 176.4593658447266 -30.43038177490234 C 168.106201171875 -30.43038177490234 163.9296112060547 -25.8531322479248 163.9296112060547 -16.69863128662109 C 163.9296112060547 -9.636590957641602 166.6469879150391 -3.620800018310547 172.081787109375 1.348783493041992 C 177.5165405273438 6.318367004394531 184.7829132080078 8.803157806396484 193.8809051513672 8.803157806396484 C 204.5276641845703 8.803157806396484 215.8966522216797 2.78736686706543 227.9878692626953 -9.244256973266602 C 240.0790710449219 -21.27588272094727 246.1246643066406 -36.70775604248047 246.1246643066406 -55.53984069824219 C 246.1246185302734 -64.43280029296875 244.5653686523438 -72.24063110351562 241.4468994140625 -78.77954864501953 C 240.7786254882812 -80.34884643554688 240.1103668212891 -81.56475830078125 239.4421081542969 -82.61100769042969 C 236.1009063720703 -88.62680053710938 228.8057861328125 -96.14654541015625 217.5568695068359 -105.170295715332 C 206.3079071044922 -114.193962097168 199.2912902832031 -121.7791290283203 196.5069122314453 -127.9257583618164 C 193.7224884033203 -134.0723419189453 192.330322265625 -140.4151000976562 192.3303680419922 -146.9540100097656 C 192.330322265625 -156.8931732177734 197.0080718994141 -164.4783020019531 206.3636627197266 -169.70947265625 L 209.3707885742188 -172.0634613037109 L 206.029541015625 -173.6328430175781 M 142.5455780029297 -113.213134765625 C 140.7740325927734 -113.213134765625 134.0244903564453 -106.6844635009766 122.2969970703125 -93.62705230712891 C 110.5695343017578 -80.56963348388672 101.7177886962891 -65.16021728515625 95.74179077148438 -47.39888000488281 L 95.0787353515625 -45.05101013183594 C 92.86517333984375 -36.95500946044922 91.7584228515625 -29.51084136962891 91.7584228515625 -22.71854972839355 C 91.7584228515625 -14.36096572875977 93.206298828125 -5.546716690063477 96.10202026367188 3.7242431640625 C 98.99777221679688 12.99524307250977 105.958740234375 25.59595108032227 116.9849090576172 41.5263671875 C 128.0110778808594 57.45687103271484 134.8606567382812 69.47007751464844 137.5336608886719 77.56607818603516 C 140.2066650390625 85.66207885742188 141.5431976318359 93.49653625488281 141.5431976318359 101.0694122314453 C 141.5431518554688 119.3497772216797 135.0834045410156 133.9745330810547 122.1638641357422 144.9435272216797 L 120.4932403564453 146.5129089355469 L 121.8297424316406 148.0822448730469 C 124.9273681640625 148.0822448730469 133.3866577148438 139.5990295410156 147.2076568603516 122.6325378417969 C 161.0286560058594 105.6660766601562 167.9391632080078 86.34870147705078 167.9391632080078 64.68032836914062 C 167.9391632080078 56.06936645507812 166.4355773925781 47.19582366943359 163.4284057617188 38.05974197387695 C 160.4212799072266 28.92366027832031 152.4579467773438 15.54541015625 139.5384063720703 -2.074966430664062 C 126.6189117431641 -19.69529914855957 119.4908294677734 -34.50904846191406 118.1543273925781 -46.51613235473633 C 117.4860687255859 -50.43946838378906 117.1519927978516 -53.44738006591797 117.1519927978516 -57.89388275146484 C 117.1519927978516 -78.29530334472656 125.6165313720703 -95.55805206298828 142.5455780029297 -109.68212890625 L 144.5503234863281 -111.6438369750977 L 142.5455780029297 -113.213134765625 M 222.2554931640625 24.88890838623047 C 208.3927459716797 24.88895034790039 196.6539459228516 30.97015762329102 187.0391235351562 43.13253784179688 C 177.4243316650391 55.29490661621094 172.6169128417969 63.20699310302734 172.6169128417969 66.86878204345703 L 173.9534149169922 68.43815612792969 L 176.2922821044922 64.94390869140625 C 190.102783203125 41.11769866943359 205.1385345458984 29.20461654663086 221.3992767333984 29.20461654663086 C 227.6363677978516 29.20461654663086 232.481201171875 30.67178344726562 235.9337768554688 33.60611724853516 C 239.3864440917969 36.54045104980469 241.1127319335938 39.28274536132812 241.1127319335938 41.83290863037109 C 241.1127319335938 43.87632751464844 239.3794555664062 44.89803314208984 235.9129028320312 44.89803314208984 C 230.2779846191406 44.89803314208984 225.7264099121094 47.2520751953125 222.2581634521484 51.96007537841797 C 218.7898254394531 56.66812133789062 217.0556640625 63.20699310302734 217.0556640625 71.57682800292969 C 217.0556640625 73.93087005615234 217.6090698242188 76.54644775390625 218.7158660888672 79.42353057861328 L 219.37890625 81.77753448486328 C 223.7991180419922 90.40895080566406 229.6567840576172 94.72461700439453 236.9518280029297 94.72461700439453 C 251.32275390625 94.72461700439453 261.5083618164062 87.79336547851562 263.4991455078125 68.43815612792969 C 263.4991455078125 56.14495086669922 257.9173583984375 44.83265686035156 250.7632751464844 36.85515975952148 C 243.6091156005859 28.87765884399414 234.1065673828125 24.88895034790039 222.2554931640625 24.88890838623047 M 206.029541015625 -175.6328430175781 C 206.3234558105469 -175.6328430175781 206.6137390136719 -175.5680541992188 206.8798217773438 -175.4430847167969 L 210.2210693359375 -173.8737182617188 C 210.8497009277344 -173.5784606933594 211.2801666259766 -172.9781799316406 211.3581237792969 -172.2880554199219 C 211.4361114501953 -171.5979309082031 211.1504974365234 -170.9167175292969 210.6035766601562 -170.4885864257812 L 207.5964508056641 -168.1345977783203 C 207.5154113769531 -168.0711669921875 207.4295806884766 -168.0140533447266 207.3397369384766 -167.9638366699219 C 198.5857391357422 -163.0690002441406 194.330322265625 -156.1966705322266 194.3303680419922 -146.9540100097656 C 194.330322265625 -140.732177734375 195.6755828857422 -134.6078491210938 198.3287048339844 -128.7510528564453 C 200.9691619873047 -122.9220886230469 207.8594970703125 -115.513298034668 218.8083190917969 -106.7303848266602 C 224.4710693359375 -102.1877975463867 229.2123260498047 -97.95692443847656 232.9003601074219 -94.15525817871094 C 236.6317138671875 -90.30903625488281 239.4104919433594 -86.77017211914062 241.1604309082031 -83.63614654541016 C 241.9532775878906 -82.388427734375 242.6439514160156 -81.06785583496094 243.2703552246094 -79.60218811035156 C 246.4913330078125 -72.83062744140625 248.1246185302734 -64.73503112792969 248.1246643066406 -55.53984069824219 C 248.1246643066406 -50.73763275146484 247.7330322265625 -46.08321380615234 246.960693359375 -41.7057991027832 C 246.1855316162109 -37.31250762939453 245.0052490234375 -33.07546615600586 243.4526672363281 -29.11234092712402 C 241.8972473144531 -25.14200782775879 239.9253234863281 -21.33713150024414 237.5916137695312 -17.80338287353516 C 235.2601928710938 -14.2730073928833 232.503662109375 -10.91634082794189 229.3985748291016 -7.826549530029297 C 223.2408599853516 -1.699174880981445 217.1610717773438 2.972618103027344 211.328125 6.059076309204102 C 205.3789978027344 9.207035064697266 199.5088653564453 10.80315780639648 193.8809051513672 10.80315780639648 C 189.1325378417969 10.80315780639648 184.7854919433594 10.13994979858398 180.9604949951172 8.831993103027344 C 177.0824127197266 7.505825042724609 173.6410827636719 5.484701156616211 170.7321624755859 2.824743270874023 C 164.8912048339844 -2.516216278076172 161.9296112060547 -9.084840774536133 161.9296112060547 -16.69863128662109 C 161.9296112060547 -19.17392349243164 162.2221984863281 -21.39100646972656 162.7992858886719 -23.28825759887695 C 163.4061584472656 -25.28354835510254 164.3432769775391 -26.98504829406738 165.5846557617188 -28.34550666809082 C 168.0579071044922 -31.05604934692383 171.7167053222656 -32.43038177490234 176.4593658447266 -32.43038177490234 C 180.6876220703125 -32.43038177490234 184.1734924316406 -30.7757568359375 186.820068359375 -27.51242446899414 C 189.3646545410156 -24.37483978271484 190.6549072265625 -20.67059135437012 190.6549987792969 -16.50250625610352 C 190.6549987792969 -10.41917610168457 187.6643218994141 -5.335906982421875 181.7606048583984 -1.372673034667969 C 182.1499633789062 -0.9552497863769531 182.8671722412109 -0.3925361633300781 184.1874084472656 0.2818679809570312 C 186.5427398681641 1.485074996948242 189.0242004394531 2.095117568969727 191.5628662109375 2.095117568969727 C 198.5858306884766 2.095117568969727 204.6266632080078 -0.5362148284912109 210.0305786132812 -5.949256896972656 C 215.4354095458984 -11.36325740814209 218.0627899169922 -18.0877571105957 218.0627899169922 -26.50700759887695 C 218.0627899169922 -33.44165802001953 216.4454345703125 -40.09948348999023 213.2558441162109 -46.2966194152832 L 211.2782440185547 -49.35300827026367 C 211.25537109375 -49.38833999633789 211.2336578369141 -49.42438507080078 211.2130737304688 -49.46109008789062 C 208.3925323486328 -54.4897575378418 201.6296539306641 -62.05059051513672 191.1121520996094 -71.93359375 C 185.7112884521484 -77.00867462158203 181.20703125 -81.78017425537109 177.7244873046875 -86.11554718017578 C 174.1874084472656 -90.51883697509766 171.5893707275391 -94.61734008789062 170.0025329589844 -98.29713439941406 C 168.4345703125 -101.9330062866211 167.2414855957031 -105.6571350097656 166.4562835693359 -109.3660049438477 C 165.6697387695312 -113.0815505981445 165.2709045410156 -116.8839263916016 165.2709045410156 -120.6675491333008 C 165.2709045410156 -128.0996704101562 166.672119140625 -135.1303100585938 169.4355773925781 -141.5640563964844 C 172.1946563720703 -147.9876403808594 176.3816223144531 -153.9776306152344 181.8801574707031 -159.36767578125 C 187.2731628417969 -164.6542205810547 191.9687805175781 -168.6875915527344 195.8365325927734 -171.3557586669922 C 200.0085296630859 -174.2337646484375 203.3426971435547 -175.6327972412109 206.029541015625 -175.6328430175781 Z M 142.5455780029297 -115.213134765625 C 142.9924468994141 -115.213134765625 143.4264984130859 -115.0634689331055 143.7783660888672 -114.7880096435547 L 145.7831115722656 -113.2187194824219 C 146.2369537353516 -112.8634643554688 146.5154876708984 -112.3296737670898 146.5472869873047 -111.7541732788086 C 146.5790710449219 -111.1786727905273 146.3610687255859 -110.6174621582031 145.9491119384766 -110.2143859863281 L 143.9443664550781 -108.2526702880859 C 143.9066162109375 -108.2157135009766 143.8674163818359 -108.1802597045898 143.8268280029297 -108.1464233398438 C 127.4538269042969 -94.48625946044922 119.1519927978516 -77.57884216308594 119.1519927978516 -57.89388275146484 C 119.1519927978516 -53.44113159179688 119.5091247558594 -50.47338104248047 120.1259460449219 -46.85196685791016 C 120.1324157714844 -46.81392669677734 120.1377868652344 -46.77571487426758 120.1420288085938 -46.73738098144531 C 121.4331207275391 -35.13863372802734 128.5016174316406 -20.5098819732666 141.1513214111328 -3.257549285888672 C 147.6184997558594 5.562700271606445 152.9235687255859 13.43849182128906 156.9191589355469 20.15103530883789 C 160.9568328857422 26.93420028686523 163.7859954833984 32.74920272827148 165.3281555175781 37.43445205688477 C 166.8559112548828 42.07595062255859 168.0184020996094 46.71836853027344 168.7833709716797 51.23282623291016 C 169.5502777099609 55.75894927978516 169.9391632080078 60.2833251953125 169.9391632080078 64.68032836914062 C 169.9391632080078 70.18320465087891 169.4938659667969 75.61449432373047 168.6156158447266 80.82332611083984 C 167.7362823486328 86.03840637207031 166.3985290527344 91.17594909667969 164.639404296875 96.09332275390625 C 162.8805389404297 101.0100326538086 160.6514892578125 105.8434143066406 158.0142059326172 110.4590759277344 C 155.380615234375 115.0683746337891 152.2664947509766 119.5890808105469 148.7582855224609 123.8957061767578 C 141.8379974365234 132.3909912109375 136.1706237792969 138.863037109375 131.9136657714844 143.1320343017578 C 129.7059020996094 145.3459930419922 127.8833312988281 146.9723205566406 126.3417358398438 148.1039123535156 C 124.5029907226562 149.45361328125 123.0692901611328 150.0822448730469 121.8297424316406 150.0822448730469 C 121.24365234375 150.0822448730469 120.6870727539062 149.8251647949219 120.3070831298828 149.3789978027344 L 118.9705810546875 147.8096618652344 C 118.2789459228516 146.9975280761719 118.3464050292969 145.7855834960938 119.1239166259766 145.0552062988281 L 120.7945404052734 143.4858245849609 C 120.8189086914062 143.4629058837891 120.8439025878906 143.4405822753906 120.8694458007812 143.4189147949219 C 133.2604064941406 132.8986968994141 139.5431518554688 118.6502380371094 139.5431976318359 101.0694122314453 C 139.5431976318359 93.74540710449219 138.2281188964844 86.04869842529297 135.6344909667969 78.193115234375 C 133.0340270996094 70.31678771972656 126.2061157226562 58.36328125 115.3404083251953 42.66461944580078 C 109.8149871826172 34.68161773681641 105.2404937744141 27.42457580566406 101.7439117431641 21.09511947631836 C 98.21469116210938 14.70649337768555 95.6741943359375 9.062702178955078 94.1929931640625 4.320533752441406 C 91.25039672851562 -5.100339889526367 89.7584228515625 -14.19759082794189 89.7584228515625 -22.71854972839355 C 89.7584228515625 -29.65738296508789 90.89935302734375 -37.34854888916016 93.1495361328125 -45.57846832275391 C 93.15103149414062 -45.58383941650391 93.15249633789062 -45.58921813964844 93.15402221679688 -45.59455108642578 L 93.81707763671875 -47.94242477416992 C 93.82598876953125 -47.97409057617188 93.835693359375 -48.00550842285156 93.84619140625 -48.03667449951172 C 96.86203002929688 -57.00004959106445 100.6579132080078 -65.49079895019531 105.1283721923828 -73.27313232421875 C 109.6033325195312 -81.06333923339844 114.8790740966797 -88.36100769042969 120.8090362548828 -94.96346282958984 C 126.6764984130859 -101.4962997436523 131.3717498779297 -106.4726333618164 134.7642822265625 -109.7541732788086 C 136.5230712890625 -111.4554214477539 137.9305725097656 -112.7057571411133 139.0671539306641 -113.5765914916992 C 140.5843200683594 -114.7390060424805 141.5920715332031 -115.213134765625 142.5455780029297 -115.213134765625 Z M 222.2554931640625 22.88890838623047 C 228.4205780029297 22.88895034790039 234.0693359375 23.94786834716797 239.0448303222656 26.03636932373047 C 244.0490417480469 28.13690948486328 248.4926605224609 31.32761764526367 252.2522430419922 35.51986694335938 C 256.1412353515625 39.85649108886719 259.39208984375 44.94761657714844 261.6533203125 50.24282836914062 C 264.2052612304688 56.21874237060547 265.4991455078125 62.34053802490234 265.4991455078125 68.43815612792969 C 265.4991455078125 68.50649261474609 265.4956665039062 68.57478332519531 265.4886474609375 68.64278411865234 C 264.982666015625 73.56220245361328 263.9326171875 77.88982391357422 262.3676147460938 81.50537109375 C 260.8343200683594 85.04769897460938 258.762451171875 88.01436614990234 256.2095031738281 90.32299041748047 C 253.7699127197266 92.52915954589844 250.8350372314453 94.18540954589844 247.4864196777344 95.24586486816406 C 244.387939453125 96.22707366943359 240.8435668945312 96.72461700439453 236.9518280029297 96.72461700439453 C 228.8794555664062 96.72461700439453 222.3681182861328 92.00241088867188 217.5987396240234 82.68915557861328 C 217.538330078125 82.57115936279297 217.4897766113281 82.44741058349609 217.4538269042969 82.31978607177734 L 216.8155212402344 80.0535888671875 C 215.6476440429688 76.99313354492188 215.0556640625 74.14178466796875 215.0556640625 71.57682800292969 C 215.0556640625 67.23849487304688 215.5157470703125 63.30394744873047 216.4231109619141 59.88257598876953 C 217.350830078125 56.38457489013672 218.7722473144531 53.31995391845703 220.6479034423828 50.77382659912109 C 224.4977874755859 45.54782867431641 229.6336669921875 42.89803314208984 235.9129028320312 42.89803314208984 C 237.7003173828125 42.89803314208984 238.4871978759766 42.59153747558594 238.7971496582031 42.40882873535156 C 239.0339508056641 42.26924133300781 239.1127319335938 42.16645050048828 239.1127319335938 41.83290863037109 C 239.1127319335938 39.93549346923828 237.5656127929688 37.61770248413086 234.6386108398438 35.13007736206055 C 231.5737915039062 32.52532577514648 227.1194458007812 31.20461654663086 221.3992767333984 31.20461654663086 C 205.9791107177734 31.20461654663086 191.3851165771484 42.89361572265625 178.0226135253906 65.94686889648438 C 178.0010375976562 65.98411560058594 177.9782409667969 66.02061462402344 177.9543304443359 66.05641174316406 L 175.6154479980469 69.5506591796875 C 175.2669067382812 70.07136535644531 174.6944580078125 70.39862060546875 174.0689086914062 70.43482971191406 C 173.4435424804688 70.47090148925781 172.8370056152344 70.21195983886719 172.4307403564453 69.73487091064453 L 171.09423828125 68.16548919677734 C 170.7861175537109 67.80370330810547 170.6169128417969 67.343994140625 170.6169128417969 66.86878204345703 C 170.6169128417969 64.21249389648438 172.1566162109375 58.73336791992188 185.4701538085938 41.89220428466797 C 187.9430694580078 38.76407623291016 190.593994140625 35.98440933227539 193.349365234375 33.63036727905273 C 196.1221160888672 31.26140975952148 199.0778198242188 29.25740814208984 202.1343688964844 27.67399215698242 C 205.2002868652344 26.08570098876953 208.4504089355469 24.87761688232422 211.7944488525391 24.08328247070312 C 215.1309509277344 23.2907829284668 218.6505279541016 22.88890838623047 222.2554931640625 22.88890838623047 Z" stroke="none" fill="#2e1bd2"/>
      </g>
      <g id="패스_8" data-name="패스 8" transform="translate(171.24 807.113)" fill="#333" stroke-linecap="round" stroke-linejoin="round">
        <path d="M 241.9149780273438 292.601806640625 C 236.1192779541016 292.601806640625 230.7536926269531 291.6365661621094 225.9673309326172 289.7328491210938 C 221.1698608398438 287.8247985839844 216.8280487060547 284.9242553710938 213.0624542236328 281.1119079589844 C 211.1884002685547 279.2146301269531 209.5309753417969 277.0747375488281 208.1361541748047 274.7518615722656 C 206.7696228027344 272.47607421875 205.6087493896484 269.9468994140625 204.6857452392578 267.2346801757812 C 202.8991546630859 261.9845581054688 201.9286346435547 255.9645538330078 201.7188110351562 248.8305511474609 L 201.7159271240234 248.7327270507812 L 201.7321014404297 248.6362609863281 C 202.6321563720703 243.2516784667969 203.6812744140625 237.5810852050781 205.2499847412109 232.591552734375 C 206.7490997314453 227.8230895996094 208.6735076904297 223.8063201904297 211.3061065673828 219.9506225585938 C 213.9830932617188 216.0298461914062 217.5310363769531 212.0657958984375 222.4717407226562 207.4755554199219 C 226.9256286621094 203.3376159667969 232.7311553955078 198.4800262451172 241.2957458496094 191.7253875732422 L 241.3366851806641 191.6930847167969 L 241.3807525634766 191.6652069091797 C 248.9404602050781 186.8877868652344 257.4314575195312 182.4443817138672 266.617919921875 178.4583282470703 C 273.9610900878906 175.2721405029297 281.7634582519531 172.3689727783203 289.8083801269531 169.8294982910156 C 302.8057250976562 165.7267150878906 312.2958679199219 163.899169921875 313.3200988769531 163.7071075439453 C 314.0360717773438 163.4412689208984 318.8064880371094 161.7328796386719 327.6022033691406 160.0067901611328 C 333.0860900878906 158.9306793212891 339.0028686523438 158.0733795166016 345.1881103515625 157.4587860107422 C 352.9132080078125 156.6912078857422 361.0828552246094 156.3019714355469 369.4700927734375 156.3019714355469 L 369.7833251953125 156.3021392822266 L 369.8242797851562 156.3022003173828 L 369.8650512695312 156.3055572509766 C 393.9138793945312 158.3039093017578 413.3401489257812 161.6099090576172 429.2540283203125 166.4123840332031 C 438.7910461425781 169.2904357910156 447.1276245117188 172.7563781738281 454.0321655273438 176.7138519287109 C 457.7554626464844 178.8479614257812 461.1481018066406 181.1736145019531 464.1158752441406 183.6261444091797 C 467.2082824707031 186.1817626953125 469.9291381835938 188.9492492675781 472.2036437988281 191.8525085449219 L 474.3936767578125 194.1127319335938 L 488.1398620605469 188.8703155517578 C 506.8785705566406 179.6411590576172 520.9780883789062 171.6949157714844 532.50537109375 163.8668060302734 C 554.019775390625 146.8813629150391 564.927734375 120.6153182983398 564.927734375 85.79644012451172 C 564.927734375 67.28314208984375 559.695556640625 51.38732147216797 549.3765258789062 38.55055618286133 C 539.1102905273438 25.77949714660645 525.4857177734375 19.30402755737305 508.8812866210938 19.30402755737305 C 500.3558044433594 19.30402755737305 492.7161560058594 20.98038101196289 486.174560546875 24.28655624389648 L 486.0506896972656 24.34920310974121 L 485.9144592285156 24.37567520141602 L 481.9783020019531 25.14137077331543 C 478.6263732910156 26.4626293182373 470.3993835449219 30.77828216552734 457.5204467773438 37.97114562988281 C 450.9384460449219 41.6472053527832 444.2455749511719 44.44408798217773 437.6278076171875 46.28402709960938 C 430.999267578125 48.12696838378906 424.2611694335938 49.06137847900391 417.6006774902344 49.06137847900391 C 413.85791015625 49.06137847900391 410.2219848632812 48.6971435546875 406.7937927246094 47.97885131835938 C 403.3591613769531 47.25920486450195 400.0375671386719 46.16414642333984 396.9214477539062 44.72408676147461 C 393.8056945800781 43.28426361083984 390.809326171875 41.45979309082031 388.0154418945312 39.3013801574707 C 385.2274475097656 37.14749908447266 382.5636901855469 34.60114669799805 380.0982055664062 31.73308563232422 C 375.17138671875 26.00173377990723 371.424560546875 19.4051456451416 368.9617919921875 12.12655639648438 C 366.5054626464844 4.866674423217773 365.2599182128906 -3.270502090454102 365.2599182128906 -12.05903148651123 C 365.2599182128906 -18.40962028503418 365.9192810058594 -24.74226760864258 367.2197570800781 -30.88103103637695 C 368.5199279785156 -37.01850128173828 370.4972229003906 -43.13362121582031 373.0966796875 -49.05650329589844 C 375.6935119628906 -54.97344207763672 378.9841003417969 -60.86432647705078 382.8770446777344 -66.56538391113281 C 386.7640991210938 -72.25792694091797 391.3605651855469 -77.9208984375 396.5397033691406 -83.39795684814453 C 401.5482177734375 -88.75544738769531 406.6291198730469 -93.56092834472656 411.6408081054688 -97.68032836914062 C 416.661865234375 -101.8075637817383 421.7559814453125 -105.3633270263672 426.7815246582031 -108.2489166259766 C 466.5088195800781 -130.986572265625 492.1145629882812 -148.5932159423828 502.8908386230469 -160.5827178955078 L 508.2178649902344 -166.7659759521484 L 508.97802734375 -167.6483917236328 L 509.7352905273438 -166.7633819580078 L 511.0754089355469 -165.1972045898438 L 511.3155822753906 -164.91650390625 L 511.3155822753906 -164.5470886230469 C 511.3155822753906 -161.8656311035156 508.0787658691406 -155.6941680908203 480.2085266113281 -133.1769104003906 C 480.5617065429688 -131.4940490722656 483.0209655761719 -127.7208404541016 493.9251708984375 -119.7391510009766 C 503.1562194824219 -112.9822692871094 517.0362548828125 -109.556266784668 535.1798095703125 -109.5563278198242 C 546.5289916992188 -109.556266784668 555.4175415039062 -113.0665588378906 561.5987548828125 -119.9897384643555 C 567.80908203125 -126.9457397460938 570.9580078125 -135.3502655029297 570.9580078125 -144.9699096679688 C 570.9580078125 -147.5111541748047 570.5119018554688 -151.4064483642578 569.6322631835938 -156.5476226806641 L 571.5162963867188 -157.1555023193359 C 574.289794921875 -151.4828033447266 575.6380615234375 -147.1126251220703 575.6380615234375 -143.7952728271484 C 575.6380615234375 -139.0192718505859 575.1356201171875 -134.3424987792969 574.1448364257812 -129.8947906494141 C 573.1532592773438 -125.4437408447266 571.6449584960938 -121.0984420776367 569.6619262695312 -116.979621887207 C 567.6806640625 -112.8645629882812 565.1704711914062 -108.861328125 562.2009887695312 -105.0811462402344 C 559.2373657226562 -101.3085021972656 555.7334594726562 -97.65238189697266 551.7864379882812 -94.21443939208984 C 547.8479614257812 -90.78391265869141 543.7738037109375 -87.73885345458984 539.6771850585938 -85.16373443603516 C 535.5743408203125 -82.58473968505859 531.3336791992188 -80.40473937988281 527.0729370117188 -78.68415069580078 C 522.807861328125 -76.96185302734375 518.4034423828125 -75.65179443359375 513.9819946289062 -74.79032897949219 C 509.5601501464844 -73.92879486083984 504.998046875 -73.49197387695312 500.4223937988281 -73.49197387695312 L 500.4225158691406 -73.49197387695312 C 500.4223937988281 -73.49197387695312 500.4223937988281 -73.49197387695312 500.4223937988281 -73.49197387695312 C 496.3528137207031 -73.49197387695312 491.2103881835938 -74.03009033203125 485.1377563476562 -75.09144592285156 L 485.1270446777344 -75.09332275390625 L 485.1163330078125 -75.09544372558594 L 481.0858154296875 -75.89073944091797 L 481.0179138183594 -75.90409088134766 L 480.9525756835938 -75.92673492431641 C 474.4073486328125 -78.19020843505859 467.6619873046875 -81.66203308105469 460.9038696289062 -86.24573516845703 C 454.1829528808594 -90.80429840087891 447.258056640625 -96.59261322021484 440.3216247558594 -103.4494781494141 L 435.965576171875 -106.7547378540039 C 434.7035522460938 -106.6106643676758 432.4528503417969 -105.5703201293945 428.6045227050781 -101.7753219604492 C 425.0862121582031 -98.30585479736328 420.7259826660156 -93.01197052001953 415.6449279785156 -86.04079437255859 C 405.5465698242188 -72.18579864501953 400.42626953125 -53.41420745849609 400.42626953125 -30.2474422454834 C 400.42626953125 -13.09232521057129 405.0832824707031 0.8455567955970764 414.2677917480469 11.17914485931396 C 423.4219970703125 21.47873306274414 436.4928588867188 26.70108604431152 453.1173400878906 26.70108604431152 C 460.7515258789062 26.70108604431152 470.0831604003906 23.9702033996582 480.8529968261719 18.58420372009277 L 480.8946838378906 18.56338119506836 L 480.9381103515625 18.5464973449707 L 484.9025268554688 17.00605583190918 C 494.4099731445312 11.6605224609375 503.8296508789062 7.591835021972656 512.899658203125 4.913439273834229 C 522.0094604492188 2.223203897476196 531.0237426757812 0.8591450452804565 539.6920166015625 0.8591450452804565 C 544.9326782226562 0.8591450452804565 549.9537963867188 1.322380304336548 554.6159057617188 2.235968589782715 C 559.289306640625 3.151792049407959 563.7332153320312 4.545792102813721 567.8240356445312 6.379262924194336 C 571.919921875 8.215027809143066 575.7755126953125 10.54214477539062 579.2837524414062 13.29608631134033 C 582.7891845703125 16.04773330688477 586.0447387695312 19.30167388916016 588.9599609375 22.96743965148926 C 591.8639526367188 26.61885070800781 594.4407958984375 30.52638053894043 596.6190795898438 34.58149719238281 C 598.7973022460938 38.63637924194336 600.6378173828125 42.95220565795898 602.089599609375 47.40902709960938 C 603.5401611328125 51.86226272583008 604.6431884765625 56.58096694946289 605.3681030273438 61.43414688110352 C 606.0921020507812 66.28126525878906 606.459228515625 71.39861297607422 606.459228515625 76.64408874511719 C 606.459228515625 81.24367523193359 606.1033935546875 85.79244232177734 605.401611328125 90.16402435302734 C 604.6994018554688 94.53838348388672 603.6311645507812 98.85797119140625 602.2265014648438 103.0027313232422 C 600.8218994140625 107.1473770141602 599.0416870117188 111.2332000732422 596.9352416992188 115.1467895507812 C 594.8302612304688 119.0576171875 592.3405151367188 122.9060287475586 589.5352172851562 126.5850296020508 C 583.9378051757812 133.9257354736328 576.5382690429688 141.2637329101562 567.5421752929688 148.3950805664062 C 558.5693969726562 155.5080871582031 547.751953125 162.6187896728516 535.390380859375 169.52978515625 C 511.3996276855469 182.8342590332031 496.3099365234375 191.0772094726562 490.1647338867188 193.8444976806641 L 490.1268615722656 193.8615570068359 L 490.0876159667969 193.8754425048828 C 470.2592163085938 200.8897399902344 456.5768127441406 207.3007965087891 447.0283203125 214.0513763427734 C 438.358154296875 220.1811981201172 430.39599609375 228.4173736572266 423.3630981445312 238.5312042236328 L 422.7603454589844 239.3980255126953 L 421.9274597167969 238.7490844726562 L 419.9174499511719 237.1829071044922 L 419.5321044921875 236.8826141357422 L 419.5321044921875 236.3940887451172 C 419.5321044921875 234.370849609375 420.7702331542969 231.6374359130859 423.3171691894531 228.0376129150391 C 425.6839599609375 224.6924591064453 429.2465515136719 220.5298309326172 433.90966796875 215.6607513427734 C 433.736572265625 214.4637298583984 432.6983642578125 212.4559783935547 429.1142883300781 209.2956085205078 C 425.7350463867188 206.3158569335938 420.5748596191406 202.74609375 413.7770385742188 198.6855010986328 C 400.3761596679688 190.6807403564453 344.330810546875 186.4933166503906 318.0445251464844 186.4933166503906 C 308.3782653808594 186.4933166503906 292.4759216308594 189.2209167480469 276.5432739257812 193.6116180419922 C 258.9607543945312 198.4570922851562 244.6253967285156 204.4514465332031 237.2130432128906 210.0576782226562 C 220.7456359863281 222.5124359130859 207.7386322021484 232.3500213623047 207.7386322021484 249.4619140625 C 207.7386322021484 260.3196105957031 211.0248107910156 269.2046203613281 217.5059204101562 275.8700256347656 C 223.9795074462891 282.5276184082031 232.6427459716797 285.9033203125 243.2550354003906 285.9033203125 C 258.2626342773438 285.9033203125 270.8433227539062 279.3024291992188 280.6476745605469 266.2840270996094 L 280.6690979003906 266.2555541992188 L 280.6925048828125 266.2287292480469 L 283.0376892089844 263.536865234375 L 284.248046875 262.1476135253906 L 284.7533264160156 263.9194946289062 L 285.42333984375 266.268798828125 L 285.4617004394531 266.4031982421875 L 285.4617004394531 266.5430297851562 C 285.4617004394531 268.1011962890625 284.4148559570312 270.1337890625 282.2613220214844 272.7570190429688 C 280.2554016113281 275.2005004882812 277.2178039550781 278.2354431152344 273.2330322265625 281.7775573730469 C 269.1881713867188 285.3730773925781 264.4952697753906 288.1072692871094 259.2848205566406 289.9042663574219 C 254.0945739746094 291.6942138671875 248.2505187988281 292.601806640625 241.9149780273438 292.601806640625 Z" stroke="none"/>
        <path d="M 508.9754638671875 -166.11328125 L 503.6414489746094 -159.9220275878906 C 492.7465209960938 -147.79638671875 467.2925109863281 -130.2829132080078 427.2794494628906 -107.3816833496094 C 417.2778625488281 -101.6390380859375 407.2745056152344 -93.4166259765625 397.2695617675781 -82.71438598632812 C 376.5965270996094 -60.85321044921875 366.2599182128906 -37.3013916015625 366.2599182128906 -12.05903625488281 C 366.2599182128906 5.381027221679688 371.1254577636719 19.76108551025391 380.8565673828125 31.08120727539062 C 390.5876770019531 42.40132141113281 402.835693359375 48.06137847900391 417.6006774902344 48.06137847900391 C 430.8023376464844 48.06137847900391 443.9462890625 44.40696716308594 457.0328063964844 37.09808349609375 C 470.1192321777344 29.78932189941406 478.3409729003906 25.48232269287109 481.6980895996094 24.17714691162109 L 485.7235107421875 23.39408874511719 C 492.4376831054688 20.00067138671875 500.156982421875 18.30402374267578 508.8812866210938 18.30402374267578 C 525.883056640625 18.30402374267578 539.641357421875 24.84402465820312 550.1558837890625 37.92402648925781 C 560.6705322265625 51.00408935546875 565.927734375 66.96150207519531 565.927734375 85.79644012451172 C 565.927734375 121.1169662475586 554.98388671875 147.4095611572266 533.096435546875 164.6741943359375 C 521.9293212890625 172.2603759765625 508.1938171386719 180.109619140625 488.5397033691406 189.7880859375 L 474.1341552734375 195.2819671630859 L 471.4487915039062 192.5105590820312 C 453.1033325195312 169.038330078125 410.3934020996094 160.6767272949219 369.7822265625 157.3021392822266 C 369.6765747070312 157.3020324707031 369.5754699707031 157.3019714355469 369.4701232910156 157.3019714355469 C 332.8436889648438 157.3025665283203 313.5893249511719 164.6741943359375 313.5893249511719 164.6741943359375 C 313.5893249511719 164.6741943359375 274.8676147460938 171.685791015625 241.9149780273438 192.5105590820312 C 210.5588989257812 217.2403259277344 206.9151611328125 223.6943817138672 202.7183837890625 248.8011474609375 C 203.1187744140625 262.4158325195312 206.403564453125 272.9473876953125 213.77392578125 280.4091491699219 C 221.1441650390625 287.8709106445312 230.5245361328125 291.601806640625 241.9149780273438 291.601806640625 C 254.422119140625 291.601806640625 264.6400146484375 288.0779113769531 272.568603515625 281.0300903320312 C 280.497314453125 273.9822998046875 284.461669921875 269.1532592773438 284.461669921875 266.54296875 L 283.7916870117188 264.1937255859375 L 281.446533203125 266.8855590820312 C 271.3961181640625 280.230712890625 258.6656494140625 286.9032592773438 243.2550048828125 286.9032592773438 C 232.311279296875 286.9032592773438 223.4892578125 283.4579162597656 216.7890014648438 276.567138671875 C 210.0887451171875 269.6763916015625 206.7386474609375 260.6412658691406 206.7386474609375 249.4618530273438 C 206.7386474609375 232.0381469726562 219.9358520507812 221.8710327148438 236.6097412109375 209.2600860595703 C 253.2836303710938 196.6490783691406 298.5719299316406 185.4933166503906 318.0445251464844 185.4933166503906 C 344.0045166015625 185.4933166503906 400.5245666503906 189.6045532226562 414.2898559570312 197.8269653320312 C 428.0549926757812 206.0494384765625 434.9376220703125 212.1183776855469 434.9376220703125 216.0337829589844 C 425.333984375 226.0222625732422 420.5321044921875 232.8090209960938 420.5321044921875 236.3940887451172 L 422.5421142578125 237.9602661132812 C 429.675048828125 227.7026062011719 437.6447448730469 219.4608459472656 446.4510498046875 213.2348480224609 C 455.2573852539062 207.0089111328125 468.3551635742188 200.5025634765625 489.754150390625 192.9326782226562 C 495.5505065917969 190.3223876953125 509.4850463867188 182.7525634765625 534.9024047851562 168.6569671630859 C 559.64794921875 154.8223876953125 577.5938110351562 140.5963134765625 588.7400512695312 125.9786148071289 C 599.8861694335938 111.3610305786133 605.459228515625 94.91614532470703 605.459228515625 76.64408874511719 C 605.459228515625 55.76173400878906 599.698486328125 38.07696533203125 588.17724609375 23.58985137939453 C 576.656005859375 9.102729797363281 560.4942626953125 1.859146118164062 539.6920166015625 1.859146118164062 C 522.466796875 1.859146118164062 504.3464050292969 7.21026611328125 485.3309326171875 17.91243743896484 L 481.3002624511719 19.47861480712891 C 470.339111328125 24.96026611328125 460.9447326660156 27.70108795166016 453.1173400878906 27.70108795166016 C 436.1153869628906 27.70108795166016 422.9164428710938 22.41526031494141 413.5203857421875 11.84349822998047 C 404.1242065429688 1.2718505859375 399.42626953125 -12.75849914550781 399.42626953125 -30.2474365234375 C 399.42626953125 -53.74009704589844 404.5631103515625 -72.53427124023438 414.8367919921875 -86.62985229492188 C 425.1105651855469 -100.7254486083984 432.2575073242188 -107.7732086181641 436.2776794433594 -107.7732086181641 L 440.9783325195312 -104.2064971923828 C 454.8604431152344 -90.47386169433594 468.2940979003906 -81.36231994628906 481.2793884277344 -76.87185668945312 L 485.3099365234375 -76.07650756835938 C 491.3540954589844 -75.0201416015625 496.3915710449219 -74.49197387695312 500.4221496582031 -74.49197387695312 C 518.5547485351562 -74.49197387695312 535.457275390625 -81.31744384765625 551.129638671875 -94.968505859375 C 566.8019409179688 -108.6195068359375 574.6380615234375 -124.8950958251953 574.6380615234375 -143.7952575683594 C 574.6380615234375 -146.9275512695312 573.2980346679688 -151.234619140625 570.617919921875 -156.7162780761719 C 571.51123046875 -151.49560546875 571.9578857421875 -147.5801391601562 571.9578857421875 -144.9699096679688 C 571.9578857421875 -135.05078125 568.7535400390625 -126.5020904541016 562.3446044921875 -119.3237915039062 C 555.9357299804688 -112.1454467773438 546.8807983398438 -108.5562591552734 535.1798095703125 -108.5563201904297 C 516.733154296875 -108.5562591552734 502.7847595214844 -112.0149078369141 493.3345031738281 -118.9322052001953 C 483.8844604492188 -125.8495025634766 479.1593322753906 -130.7438049316406 479.1593322753906 -133.6151428222656 C 499.9301147460938 -150.3699645996094 510.3155822753906 -160.6806335449219 510.3155822753906 -164.5471496582031 L 508.9754638671875 -166.11328125 M 508.9753723144531 -168.11328125 C 508.9765319824219 -168.11328125 508.9776306152344 -168.11328125 508.9788208007812 -168.11328125 C 509.5621032714844 -168.1122741699219 510.1158752441406 -167.8567504882812 510.4950561523438 -167.41357421875 L 511.8351440429688 -165.8474426269531 C 512.145263671875 -165.4851379394531 512.3155517578125 -165.0239868164062 512.3155517578125 -164.5471496582031 C 512.3155517578125 -163.1116333007812 511.573974609375 -161.4306640625 509.981689453125 -159.257080078125 C 508.6279907226562 -157.4091491699219 506.5938110351562 -155.134033203125 503.9355773925781 -152.4949645996094 C 498.8810119628906 -147.4767761230469 491.2943420410156 -140.8654479980469 481.3772277832031 -132.8360900878906 C 481.6829223632812 -132.1434326171875 482.412109375 -130.971923828125 484.1420288085938 -129.1800384521484 C 486.4144592285156 -126.8262023925781 489.9046936035156 -123.9213256835938 494.5158081054688 -120.5460357666016 C 503.5718688964844 -113.9173278808594 517.253173828125 -110.5562591552734 535.1798095703125 -110.5563201904297 C 546.23193359375 -110.5562591552734 554.8695068359375 -113.9542083740234 560.8526611328125 -120.6557922363281 C 566.89453125 -127.4229125976562 569.9578857421875 -135.6033325195312 569.9578857421875 -144.9699096679688 C 569.9578857421875 -147.4550170898438 569.5167236328125 -151.2935485839844 568.6466064453125 -156.3789672851562 C 568.4788208007812 -157.3594360351562 569.05712890625 -158.314208984375 570.0037841796875 -158.61962890625 C 570.950439453125 -158.9251098632812 571.977783203125 -158.4884033203125 572.4146728515625 -157.5947265625 C 575.256591796875 -151.7821960449219 576.6380615234375 -147.2683715820312 576.6380615234375 -143.7952575683594 C 576.6380615234375 -138.9462585449219 576.1276245117188 -134.1963195800781 575.1209106445312 -129.6773834228516 C 574.1126708984375 -125.1516265869141 572.5792236328125 -120.7335662841797 570.56298828125 -116.5458526611328 C 568.5503540039062 -112.3656158447266 566.0015258789062 -108.3005065917969 562.9873046875 -104.46337890625 C 559.985107421875 -100.6414489746094 556.4375 -96.93949890136719 552.4432373046875 -93.46038818359375 C 548.465576171875 -89.99574279785156 544.349365234375 -86.91932678222656 540.2091064453125 -84.31674194335938 C 536.0563354492188 -81.70632934570312 531.7626953125 -79.49920654296875 527.4473266601562 -77.75656127929688 C 523.1234130859375 -76.010498046875 518.6573486328125 -74.68220520019531 514.1734008789062 -73.80868530273438 C 509.6888122558594 -72.93496704101562 505.0622253417969 -72.49197387695312 500.4221496582031 -72.49197387695312 C 496.2952880859375 -72.49197387695312 491.0949096679688 -73.03515625 484.965576171875 -74.10638427734375 C 484.9512634277344 -74.10885620117188 484.9369812011719 -74.11149597167969 484.9227600097656 -74.11431884765625 L 480.8922119140625 -74.90968322753906 C 480.8018188476562 -74.92750549316406 480.7127990722656 -74.95155334472656 480.625732421875 -74.98167419433594 C 473.9974975585938 -77.2738037109375 467.1732788085938 -80.78515625 460.3424987792969 -85.41815185546875 C 453.5859985351562 -90.00086975097656 446.6300048828125 -95.81201171875 439.6655883789062 -102.6919708251953 L 435.712646484375 -105.6913452148438 C 434.7245483398438 -105.4376373291016 432.7546691894531 -104.4635009765625 429.306640625 -101.0633239746094 C 425.8268127441406 -97.63179016113281 421.5022888183594 -92.37931823730469 416.4530334472656 -85.45185852050781 C 406.4820556640625 -71.77149963378906 401.42626953125 -53.19808959960938 401.42626953125 -30.2474365234375 C 401.42626953125 -13.34461975097656 405.998291015625 0.3697891235351562 415.0152893066406 10.51485443115234 C 423.9714660644531 20.5916748046875 436.7908630371094 25.70108795166016 453.1173400878906 25.70108795166016 C 460.5948791503906 25.70108795166016 469.7759704589844 23.00572967529297 480.4057006835938 17.68984985351562 C 480.4612121582031 17.66208648681641 480.5180358886719 17.63690948486328 480.575927734375 17.6143798828125 L 484.4743041992188 16.09959411621094 C 494.0262451171875 10.73435974121094 503.4941101074219 6.648246765136719 512.6163940429688 3.954383850097656 C 521.8182373046875 1.236968994140625 530.9277954101562 -0.1408538818359375 539.6920166015625 -0.1408538818359375 C 544.9970703125 -0.1408538818359375 550.0828857421875 0.32867431640625 554.8082275390625 1.254676818847656 C 559.55615234375 2.185089111328125 564.0728759765625 3.602203369140625 568.2329711914062 5.46673583984375 C 572.4031372070312 7.335792541503906 576.3289184570312 9.705322265625 579.901123046875 12.50949859619141 C 583.4677734375 15.3092041015625 586.7789306640625 18.61832427978516 589.7426147460938 22.344970703125 C 592.68359375 26.04302978515625 595.2935180664062 30.000732421875 597.5 34.10832214355469 C 599.7062377929688 38.21537780761719 601.5701904296875 42.58614349365234 603.0403442382812 47.09931945800781 C 604.5081176757812 51.60520172119141 605.6240234375 56.37844085693359 606.357177734375 61.28643798828125 C 607.0884399414062 66.18226623535156 607.459228515625 71.34931945800781 607.459228515625 76.64408874511719 C 607.459228515625 81.29661560058594 607.09912109375 85.89867401123047 606.3889770507812 90.32255554199219 C 605.6779174804688 94.75190734863281 604.59619140625 99.12614440917969 603.1736450195312 103.32373046875 C 601.751220703125 107.5209121704102 599.9486083984375 111.658203125 597.8157958984375 115.620735168457 C 595.6859741210938 119.5777359008789 593.16748046875 123.4706192016602 590.3304443359375 127.1913223266602 C 584.6826171875 134.5980834960938 577.2245483398438 141.9957275390625 568.1633911132812 149.1787414550781 C 559.1487426757812 156.3248443603516 548.2864990234375 163.4656066894531 535.87841796875 170.4026794433594 C 535.8764038085938 170.4037933349609 535.8743286132812 170.4049072265625 535.872314453125 170.4060363769531 C 511.8619689941406 183.7213134765625 496.7528686523438 191.9743804931641 490.5754089355469 194.7562561035156 C 490.5248718261719 194.7790222167969 490.473388671875 194.7996826171875 490.4211730957031 194.8182067871094 C 470.6818542480469 201.8009643554688 457.0769348144531 208.1719055175781 447.6056213378906 214.8679656982422 C 439.0307006835938 220.9303894042969 431.1505126953125 229.0839080810547 424.1841125488281 239.1020812988281 C 423.8705139160156 239.5530242919922 423.3852844238281 239.8551940917969 422.8422241210938 239.9376220703125 C 422.2991027832031 240.0200653076172 421.7461242675781 239.87548828125 421.3128051757812 239.5379028320312 L 419.3027954101562 237.9717407226562 C 418.8164672851562 237.5927429199219 418.5321044921875 237.0106811523438 418.5321044921875 236.3940887451172 C 418.5321044921875 234.1257934570312 419.793212890625 231.2869110107422 422.5007934570312 227.4600219726562 C 424.8317260742188 224.1656036376953 428.2988586425781 220.0980072021484 432.8125305175781 215.3615112304688 C 432.5074157714844 214.4319458007812 431.5099487304688 212.7412719726562 428.4529113769531 210.0456237792969 C 425.11962890625 207.1064453125 420.0094604492188 203.5731506347656 413.2642211914062 199.5439758300781 C 407.4988098144531 196.10009765625 392.32080078125 192.911376953125 370.5261535644531 190.5652618408203 C 349.4630432128906 188.2978515625 329.0903930664062 187.4933166503906 318.0445251464844 187.4933166503906 C 308.6068725585938 187.4933166503906 292.4209594726562 190.2733154296875 276.8089599609375 194.57568359375 C 259.3438110351562 199.3887939453125 245.1315307617188 205.3224487304688 237.8162231445312 210.8551940917969 C 221.5704956054688 223.1423187255859 208.7386474609375 232.8474426269531 208.7386474609375 249.4618530273438 C 208.7386474609375 260.0502014160156 211.9295654296875 268.70068359375 218.2228393554688 275.1729125976562 C 224.5009765625 281.6295166015625 232.9230346679688 284.9032592773438 243.2550048828125 284.9032592773438 C 257.9317016601562 284.9032592773438 270.2437133789062 278.4364318847656 279.8489379882812 265.682373046875 C 279.87744140625 265.6444396972656 279.9073486328125 265.6075439453125 279.9385375976562 265.57177734375 L 282.28369140625 262.8799743652344 C 282.7654418945312 262.3269653320312 283.5111694335938 262.0820922851562 284.22705078125 262.2416687011719 C 284.94287109375 262.4013061523438 285.5138549804688 262.9399719238281 285.7149658203125 263.6452026367188 L 286.385009765625 265.9944458007812 C 286.4358520507812 266.1728515625 286.461669921875 266.357421875 286.461669921875 266.54296875 C 286.461669921875 268.3669738769531 285.37255859375 270.5431518554688 283.0342407226562 273.3914794921875 C 280.9951782226562 275.8753051757812 277.9210815429688 278.9482421875 273.8973388671875 282.52490234375 C 269.7533569335938 286.2085571289062 264.9467163085938 289.0093994140625 259.6107788085938 290.849609375 C 254.3154907226562 292.67578125 248.3617553710938 293.601806640625 241.9149780273438 293.601806640625 C 235.9921264648438 293.601806640625 230.502197265625 292.6127319335938 225.5977172851562 290.6620483398438 C 220.6710815429688 288.7025756835938 216.2142944335938 285.725830078125 212.3509521484375 281.8146362304688 C 210.4210815429688 279.8607177734375 208.7145385742188 277.6576538085938 207.27880859375 275.2666015625 C 205.8757934570312 272.9300842285156 204.6848754882812 270.3361511230469 203.739013671875 267.5568542480469 C 201.9197998046875 262.2109069824219 200.9320678710938 256.0950927734375 200.7192993164062 248.8599090576172 C 200.7154541015625 248.7298583984375 200.724365234375 248.5997314453125 200.7457275390625 248.4713745117188 C 201.6517944335938 243.0510864257812 202.708984375 237.3395080566406 204.2959594726562 232.2916259765625 C 205.8255004882812 227.4266662597656 207.7905883789062 223.3260192871094 210.480224609375 219.3867340087891 C 213.2003173828125 215.4028472900391 216.7943725585938 211.3851928710938 221.791015625 206.7429656982422 C 226.2654418945312 202.5859069824219 232.0899047851562 197.7122039794922 240.6764526367188 190.9402008056641 C 240.7310180664062 190.8971557617188 240.7877807617188 190.8569641113281 240.8464965820312 190.8198547363281 C 248.4495849609375 186.0150909423828 256.9863891601562 181.5473785400391 266.2199096679688 177.5409698486328 C 273.5946044921875 174.3410339355469 281.4296264648438 171.4256744384766 289.50732421875 168.8758544921875 C 302.4203491210938 164.7997436523438 311.6365661621094 163.0048522949219 313.0554809570312 162.739013671875 C 314.0357055664062 162.3809967041016 318.846435546875 160.7061004638672 327.4096984863281 159.0257263183594 C 332.9244079589844 157.9435577392578 338.8726806640625 157.0816802978516 345.0892028808594 156.4639129638672 C 352.8470458984375 155.6930236816406 361.0499877929688 155.3020935058594 369.4700317382812 155.3019714355469 L 369.7844543457031 155.3021392822266 C 369.8389892578125 155.3022003173828 369.8935241699219 155.3045043945312 369.9478759765625 155.3090209960938 C 394.0673828125 157.3132019042969 413.5611572265625 160.6320190429688 429.54296875 165.4550323486328 C 439.1525268554688 168.3549652099609 447.5591735839844 171.8510894775391 454.5293884277344 175.8462677001953 C 458.3018798828125 178.0084991455078 461.7415161132812 180.3666687011719 464.7529296875 182.8553161621094 C 467.8858642578125 185.4443664550781 470.6460571289062 188.2495727539062 472.9581909179688 191.1941528320312 L 474.6531982421875 192.9435119628906 L 487.7397766113281 187.95263671875 C 506.3994445800781 178.7609710693359 520.4390258789062 170.8493957519531 531.9132080078125 163.0601348876953 C 553.1572265625 146.273193359375 563.927734375 120.2789459228516 563.927734375 85.79644012451172 C 563.927734375 67.51679229736328 558.769775390625 51.83179473876953 548.5971069335938 39.17708587646484 C 538.5300903320312 26.65385437011719 525.167724609375 20.30402374267578 508.8812866210938 20.30402374267578 C 500.513916015625 20.30402374267578 493.0260925292969 21.94420623779297 486.6256408691406 25.17908477783203 C 486.4612731933594 25.26214599609375 486.2862243652344 25.3221435546875 486.1054077148438 25.35726165771484 L 482.2604064941406 26.105224609375 C 478.8994445800781 27.44751739501953 470.7428283691406 31.73181915283203 458.008056640625 38.84420013427734 C 451.356689453125 42.55902862548828 444.5899353027344 45.38626098632812 437.8956298828125 47.24749755859375 C 431.179931640625 49.11467742919922 424.3516845703125 50.06137847900391 417.6006774902344 50.06137847900391 C 413.7891540527344 50.06137847900391 410.0841674804688 49.69002532958984 406.5887451171875 48.95761871337891 C 403.0802307128906 48.22249603271484 399.6865844726562 47.10355377197266 396.5019226074219 45.63185119628906 C 393.3182067871094 44.16056060791016 390.2572326660156 42.29696655273438 387.4041137695312 40.09273529052734 C 384.5626220703125 37.89749908447266 381.8494567871094 35.30426025390625 379.3399353027344 32.38497161865234 C 374.3290405273438 26.55584716796875 370.5186157226562 19.84773254394531 368.0145568847656 12.44708251953125 C 365.5231628417969 5.083732604980469 364.2599182128906 -3.161331176757812 364.2599182128906 -12.05903625488281 C 364.2599182128906 -18.47915649414062 364.9266357421875 -24.88150024414062 366.241455078125 -31.08833312988281 C 367.5557556152344 -37.29249572753906 369.5541076660156 -43.47308349609375 372.1809692382812 -49.45845031738281 C 374.8026428222656 -55.43191528320312 378.1234436035156 -61.37727355957031 382.0512084960938 -67.12931823730469 C 385.9684448242188 -72.86602783203125 390.5991821289062 -78.57131958007812 395.8152160644531 -84.08729553222656 C 400.8516540527344 -89.47422790527344 405.9623107910156 -94.30732727050781 411.0057983398438 -98.45291137695312 C 416.0697326660156 -102.6153259277344 421.2099304199219 -106.2029724121094 426.2835693359375 -109.1160888671875 C 465.9098205566406 -131.7959289550781 491.4305725097656 -149.3335876464844 502.1400756835938 -161.2435302734375 L 507.460205078125 -167.4186706542969 C 507.8401489257812 -167.8596801757812 508.3934326171875 -168.11328125 508.9753723144531 -168.11328125 Z" stroke="none" fill="#2e1bd2"/>
      </g>
    </g>
  </g>
</svg>
